M48
; DRILL file {KiCad (6.0.1)} date Fri Jun 17 19:47:07 2022
; FORMAT={-:-/ absolute / inch / decimal}
; #@! TF.CreationDate,2022-06-17T19:47:07-03:00
; #@! TF.GenerationSoftware,Kicad,Pcbnew,(6.0.1)
; #@! TF.FileFunction,Plated,1,2,PTH
FMAT,2
INCH
; #@! TA.AperFunction,Plated,PTH,ViaDrill
T1C0.0197
; #@! TA.AperFunction,Plated,PTH,ComponentDrill
T2C0.0236
; #@! TA.AperFunction,Plated,PTH,ComponentDrill
T3C0.0315
; #@! TA.AperFunction,Plated,PTH,ComponentDrill
T4C0.0394
; #@! TA.AperFunction,Plated,PTH,ComponentDrill
T5C0.0400
; #@! TA.AperFunction,Plated,PTH,ComponentDrill
T6C0.0402
; #@! TA.AperFunction,Plated,PTH,ComponentDrill
T7C0.0433
; #@! TA.AperFunction,Plated,PTH,ComponentDrill
T8C0.0591
; #@! TA.AperFunction,Plated,PTH,ViaDrill
T9C0.1181
%
G90
G05
T1
X3.1712Y-2.6142
X3.2382Y-1.3091
X3.6867Y-3.3554
X3.7402Y-3.4094
X3.7598Y-2.2244
X3.8583Y-2.1063
X4.1102Y-3.4331
X4.3071Y-2.5433
T2
X1.0315Y-2.3238
X1.122Y-1.5354
X1.122Y-1.6772
X1.1732Y-2.3238
X1.2992Y-3.3492
X1.2992Y-3.4909
X1.2992Y-3.6327
X1.2992Y-3.7744
X1.5039Y-1.377
X1.6457Y-1.377
T3
X2.2092Y-2.4114
X2.2092Y-2.6083
X2.5492Y-2.3493
X2.5492Y-2.4477
X2.5665Y-2.7165
X2.8665Y-2.7165
X3.3268Y-1.5724
X3.3268Y-1.8724
X3.3268Y-1.976
X3.3268Y-2.276
X3.5039Y-1.5724
X3.5039Y-1.8724
X3.5039Y-1.976
X3.5039Y-2.276
X3.6535Y-1.976
X3.6535Y-2.276
X3.6811Y-1.5724
X3.6811Y-1.8724
X3.8461Y-3.6417
X3.8461Y-3.8287
X3.887Y-4.0461
X3.987Y-4.0461
X3.9913Y-3.2283
X4.087Y-4.0461
X4.1461Y-3.6417
X4.1461Y-3.8287
X4.2913Y-3.2283
T4
X1.3701Y-2.8479
X1.5748Y-1.6905
X1.7717Y-1.6905
X1.9764Y-2.8479
X3.5039Y-3.8386
X3.5039Y-4.0354
X4.5079Y-1.4327
X4.5079Y-1.5327
X4.5079Y-1.6327
X4.5079Y-1.7327
X4.5079Y-1.8327
X4.5079Y-2.1213
X4.5079Y-2.2213
X4.5079Y-2.3213
X4.5079Y-2.4213
X4.5079Y-3.236
X4.5079Y-3.336
X4.5079Y-3.436
X4.5167Y-2.7439
X4.5167Y-2.8439
X4.5167Y-2.9439
T5
X1.4961Y-3.1299
X1.4976Y-3.2323
X1.4976Y-3.3323
X1.4976Y-3.4323
X1.4976Y-3.5323
X1.4976Y-3.6323
X2.4803Y-3.2354
X2.4803Y-3.3354
X2.4803Y-3.4354
X2.4803Y-3.5354
T6
X3.0433Y-1.4955
X3.0433Y-1.5955
X3.0433Y-1.6955
X3.0433Y-1.7955
X3.0433Y-1.8955
X3.0433Y-1.9955
X3.0433Y-2.0955
X3.0433Y-2.1955
X3.0433Y-2.2955
X3.0433Y-2.3955
X3.0433Y-2.4955
X3.0433Y-2.5955
X3.0433Y-2.6955
X3.0433Y-2.7955
X3.0433Y-2.8955
X4.0433Y-1.4955
X4.0433Y-1.5955
X4.0433Y-1.6955
X4.0433Y-1.7955
X4.0433Y-1.8955
X4.0433Y-1.9955
X4.0433Y-2.0955
X4.0433Y-2.1955
X4.0433Y-2.2955
X4.0433Y-2.3955
X4.0433Y-2.4955
X4.0433Y-2.5955
X4.0433Y-2.6955
X4.0433Y-2.7955
X4.0433Y-2.8955
T7
X1.8898Y-3.9272
X1.8898Y-4.1043
X2.1457Y-3.9272
X2.1457Y-4.1043
X2.3425Y-3.9272
X2.3425Y-4.1043
X2.5984Y-3.9272
X2.5984Y-4.1043
X2.7953Y-3.9272
X2.7953Y-4.1043
X3.0512Y-3.9272
X3.0512Y-4.1043
T8
X2.2203Y-1.1596
X2.2203Y-2.0671
X2.3384Y-2.0671
X2.6691Y-2.0652
X2.7872Y-1.1596
X2.7872Y-2.0652
T9
X1.1811Y-1.1811
X1.2008Y-4.0157
X4.5079Y-1.1811
X4.5276Y-4.0157
T0
M30
