%TF.GenerationSoftware,KiCad,Pcbnew,(6.0.1)*%
%TF.CreationDate,2022-06-09T16:49:39-03:00*%
%TF.ProjectId,alimentador automatico para pets,616c696d-656e-4746-9164-6f7220617574,rev?*%
%TF.SameCoordinates,Original*%
%TF.FileFunction,Legend,Bot*%
%TF.FilePolarity,Positive*%
%FSLAX46Y46*%
G04 Gerber Fmt 4.6, Leading zero omitted, Abs format (unit mm)*
G04 Created by KiCad (PCBNEW (6.0.1)) date 2022-06-09 16:49:39*
%MOMM*%
%LPD*%
G01*
G04 APERTURE LIST*
%ADD10C,0.150000*%
%ADD11C,0.300000*%
%ADD12C,0.120000*%
G04 APERTURE END LIST*
D10*
X26000000Y-41000000D02*
X31000000Y-41000000D01*
X47250000Y-48250000D02*
X24000000Y-48250000D01*
X40000000Y-39000000D02*
X40000000Y-33000000D01*
X47250000Y-48250000D02*
X47250000Y-25250000D01*
D11*
X37178571Y-26750000D02*
X37892857Y-26750000D01*
X37035714Y-26321428D02*
X37535714Y-27821428D01*
X38035714Y-26321428D01*
X39392857Y-26464285D02*
X39321428Y-26392857D01*
X39107142Y-26321428D01*
X38964285Y-26321428D01*
X38750000Y-26392857D01*
X38607142Y-26535714D01*
X38535714Y-26678571D01*
X38464285Y-26964285D01*
X38464285Y-27178571D01*
X38535714Y-27464285D01*
X38607142Y-27607142D01*
X38750000Y-27750000D01*
X38964285Y-27821428D01*
X39107142Y-27821428D01*
X39321428Y-27750000D01*
X39392857Y-27678571D01*
X41178571Y-26321428D02*
X41178571Y-27821428D01*
X41892857Y-26321428D02*
X41892857Y-27821428D01*
X42750000Y-26321428D01*
X42750000Y-27821428D01*
D10*
%TO.C,BZ1*%
X81758571Y-99119047D02*
X81806190Y-99261904D01*
X81853809Y-99309523D01*
X81949047Y-99357142D01*
X82091904Y-99357142D01*
X82187142Y-99309523D01*
X82234761Y-99261904D01*
X82282380Y-99166666D01*
X82282380Y-98785714D01*
X81282380Y-98785714D01*
X81282380Y-99119047D01*
X81330000Y-99214285D01*
X81377619Y-99261904D01*
X81472857Y-99309523D01*
X81568095Y-99309523D01*
X81663333Y-99261904D01*
X81710952Y-99214285D01*
X81758571Y-99119047D01*
X81758571Y-98785714D01*
X81282380Y-99690476D02*
X81282380Y-100357142D01*
X82282380Y-99690476D01*
X82282380Y-100357142D01*
X82282380Y-101261904D02*
X82282380Y-100690476D01*
X82282380Y-100976190D02*
X81282380Y-100976190D01*
X81425238Y-100880952D01*
X81520476Y-100785714D01*
X81568095Y-100690476D01*
%TO.C,SW3*%
X52583333Y-98154761D02*
X52440476Y-98202380D01*
X52202380Y-98202380D01*
X52107142Y-98154761D01*
X52059523Y-98107142D01*
X52011904Y-98011904D01*
X52011904Y-97916666D01*
X52059523Y-97821428D01*
X52107142Y-97773809D01*
X52202380Y-97726190D01*
X52392857Y-97678571D01*
X52488095Y-97630952D01*
X52535714Y-97583333D01*
X52583333Y-97488095D01*
X52583333Y-97392857D01*
X52535714Y-97297619D01*
X52488095Y-97250000D01*
X52392857Y-97202380D01*
X52154761Y-97202380D01*
X52011904Y-97250000D01*
X51678571Y-97202380D02*
X51440476Y-98202380D01*
X51250000Y-97488095D01*
X51059523Y-98202380D01*
X50821428Y-97202380D01*
X50535714Y-97202380D02*
X49916666Y-97202380D01*
X50250000Y-97583333D01*
X50107142Y-97583333D01*
X50011904Y-97630952D01*
X49964285Y-97678571D01*
X49916666Y-97773809D01*
X49916666Y-98011904D01*
X49964285Y-98107142D01*
X50011904Y-98154761D01*
X50107142Y-98202380D01*
X50392857Y-98202380D01*
X50488095Y-98154761D01*
X50535714Y-98107142D01*
%TO.C,SW2*%
X64083333Y-98154761D02*
X63940476Y-98202380D01*
X63702380Y-98202380D01*
X63607142Y-98154761D01*
X63559523Y-98107142D01*
X63511904Y-98011904D01*
X63511904Y-97916666D01*
X63559523Y-97821428D01*
X63607142Y-97773809D01*
X63702380Y-97726190D01*
X63892857Y-97678571D01*
X63988095Y-97630952D01*
X64035714Y-97583333D01*
X64083333Y-97488095D01*
X64083333Y-97392857D01*
X64035714Y-97297619D01*
X63988095Y-97250000D01*
X63892857Y-97202380D01*
X63654761Y-97202380D01*
X63511904Y-97250000D01*
X63178571Y-97202380D02*
X62940476Y-98202380D01*
X62750000Y-97488095D01*
X62559523Y-98202380D01*
X62321428Y-97202380D01*
X61988095Y-97297619D02*
X61940476Y-97250000D01*
X61845238Y-97202380D01*
X61607142Y-97202380D01*
X61511904Y-97250000D01*
X61464285Y-97297619D01*
X61416666Y-97392857D01*
X61416666Y-97488095D01*
X61464285Y-97630952D01*
X62035714Y-98202380D01*
X61416666Y-98202380D01*
%TO.C,SW1*%
X75583333Y-98154761D02*
X75440476Y-98202380D01*
X75202380Y-98202380D01*
X75107142Y-98154761D01*
X75059523Y-98107142D01*
X75011904Y-98011904D01*
X75011904Y-97916666D01*
X75059523Y-97821428D01*
X75107142Y-97773809D01*
X75202380Y-97726190D01*
X75392857Y-97678571D01*
X75488095Y-97630952D01*
X75535714Y-97583333D01*
X75583333Y-97488095D01*
X75583333Y-97392857D01*
X75535714Y-97297619D01*
X75488095Y-97250000D01*
X75392857Y-97202380D01*
X75154761Y-97202380D01*
X75011904Y-97250000D01*
X74678571Y-97202380D02*
X74440476Y-98202380D01*
X74250000Y-97488095D01*
X74059523Y-98202380D01*
X73821428Y-97202380D01*
X72916666Y-98202380D02*
X73488095Y-98202380D01*
X73202380Y-98202380D02*
X73202380Y-97202380D01*
X73297619Y-97345238D01*
X73392857Y-97440476D01*
X73488095Y-97488095D01*
%TO.C,G\u002A\u002A\u002A*%
G36*
X35046214Y-37889417D02*
G01*
X35054535Y-37900353D01*
X35073891Y-37927900D01*
X35102582Y-37969529D01*
X35138907Y-38022715D01*
X35181167Y-38084931D01*
X35227663Y-38153650D01*
X35276696Y-38226346D01*
X35326564Y-38300492D01*
X35375570Y-38373560D01*
X35422013Y-38443026D01*
X35464194Y-38506362D01*
X35500413Y-38561041D01*
X35528971Y-38604536D01*
X35548168Y-38634322D01*
X35556304Y-38647871D01*
X35555108Y-38649590D01*
X35537945Y-38653175D01*
X35504681Y-38655662D01*
X35460356Y-38656593D01*
X35453660Y-38656611D01*
X35403580Y-38658291D01*
X35371708Y-38662485D01*
X35360531Y-38668885D01*
X35362579Y-38680412D01*
X35370325Y-38713207D01*
X35383325Y-38764648D01*
X35401029Y-38832669D01*
X35422891Y-38915204D01*
X35448362Y-39010188D01*
X35476894Y-39115554D01*
X35507940Y-39229237D01*
X35540952Y-39349170D01*
X35541347Y-39350602D01*
X35568298Y-39448710D01*
X35598627Y-39560019D01*
X35629923Y-39675630D01*
X35659778Y-39786641D01*
X35685782Y-39884152D01*
X35694566Y-39917210D01*
X35720857Y-40015522D01*
X35750513Y-40125689D01*
X35781472Y-40240085D01*
X35811672Y-40351087D01*
X35839053Y-40451068D01*
X35839075Y-40451148D01*
X35860726Y-40530861D01*
X35879811Y-40603046D01*
X35895587Y-40664729D01*
X35907309Y-40712936D01*
X35914233Y-40744696D01*
X35915615Y-40757034D01*
X35915472Y-40757154D01*
X35901910Y-40755609D01*
X35873333Y-40746518D01*
X35835716Y-40731769D01*
X35791877Y-40713460D01*
X35727008Y-40686796D01*
X35651302Y-40656023D01*
X35567253Y-40622125D01*
X35477353Y-40586086D01*
X35384096Y-40548892D01*
X35289975Y-40511528D01*
X35197483Y-40474978D01*
X35109113Y-40440226D01*
X35027358Y-40408259D01*
X34954712Y-40380061D01*
X34893668Y-40356617D01*
X34846719Y-40338910D01*
X34816358Y-40327928D01*
X34805078Y-40324653D01*
X34807603Y-40334671D01*
X34818406Y-40363333D01*
X34836448Y-40407736D01*
X34860545Y-40465027D01*
X34889513Y-40532352D01*
X34922168Y-40606857D01*
X34958170Y-40688300D01*
X35034179Y-40860292D01*
X35101521Y-41012744D01*
X35160723Y-41146857D01*
X35212315Y-41263832D01*
X35256825Y-41364870D01*
X35294780Y-41451172D01*
X35326710Y-41523938D01*
X35353143Y-41584369D01*
X35374606Y-41633666D01*
X35391629Y-41673031D01*
X35404740Y-41703663D01*
X35425956Y-41752965D01*
X35455332Y-41820112D01*
X35486869Y-41891308D01*
X35516594Y-41957534D01*
X35523072Y-41971870D01*
X35545992Y-42023011D01*
X35564545Y-42065066D01*
X35576969Y-42094010D01*
X35581502Y-42105817D01*
X35572126Y-42107027D01*
X35542375Y-42108222D01*
X35495223Y-42109238D01*
X35433729Y-42110025D01*
X35360951Y-42110534D01*
X35279946Y-42110714D01*
X34978391Y-42110714D01*
X34961444Y-42049656D01*
X34959816Y-42043805D01*
X34948624Y-42003869D01*
X34931849Y-41944318D01*
X34910135Y-41867419D01*
X34884123Y-41775437D01*
X34854458Y-41670640D01*
X34821781Y-41555292D01*
X34786737Y-41431661D01*
X34749967Y-41302011D01*
X34712116Y-41168610D01*
X34673825Y-41033724D01*
X34635738Y-40899618D01*
X34598498Y-40768559D01*
X34562748Y-40642812D01*
X34529131Y-40524645D01*
X34498289Y-40416323D01*
X34470866Y-40320112D01*
X34447504Y-40238278D01*
X34439949Y-40211831D01*
X34410381Y-40108158D01*
X34381932Y-40008149D01*
X34355484Y-39914921D01*
X34331919Y-39831588D01*
X34312117Y-39761268D01*
X34296960Y-39707076D01*
X34287331Y-39672127D01*
X34258442Y-39565363D01*
X34283227Y-39575069D01*
X34283455Y-39575158D01*
X34299797Y-39581699D01*
X34335406Y-39596026D01*
X34388074Y-39617249D01*
X34455591Y-39644477D01*
X34535750Y-39676820D01*
X34626343Y-39713386D01*
X34725160Y-39753285D01*
X34829995Y-39795627D01*
X34838527Y-39799072D01*
X34941993Y-39840733D01*
X35038569Y-39879398D01*
X35126162Y-39914244D01*
X35202677Y-39944448D01*
X35266021Y-39969186D01*
X35314098Y-39987636D01*
X35344814Y-39998974D01*
X35356077Y-40002379D01*
X35355817Y-39999800D01*
X35350832Y-39978890D01*
X35340280Y-39938879D01*
X35324792Y-39882002D01*
X35305002Y-39810495D01*
X35281542Y-39726595D01*
X35255046Y-39632538D01*
X35226146Y-39530559D01*
X35195476Y-39422895D01*
X35163667Y-39311782D01*
X35131354Y-39199457D01*
X35099169Y-39088154D01*
X35067744Y-38980111D01*
X35037714Y-38877564D01*
X34981295Y-38685668D01*
X34873276Y-38682310D01*
X34835491Y-38680945D01*
X34798952Y-38678502D01*
X34778979Y-38674646D01*
X34771646Y-38668466D01*
X34773025Y-38659050D01*
X34773397Y-38658075D01*
X34780256Y-38638965D01*
X34793462Y-38601418D01*
X34811927Y-38548572D01*
X34834560Y-38483568D01*
X34860272Y-38409545D01*
X34887974Y-38329643D01*
X34916575Y-38247002D01*
X34944986Y-38164760D01*
X34972118Y-38086057D01*
X34996881Y-38014034D01*
X35012923Y-37968576D01*
X35028420Y-37927379D01*
X35040043Y-37899506D01*
X35046064Y-37889334D01*
X35046214Y-37889417D01*
G37*
G36*
X30461605Y-37408127D02*
G01*
X30407141Y-37313324D01*
X30395118Y-37292103D01*
X30373405Y-37250494D01*
X30360909Y-37217973D01*
X30355201Y-37187117D01*
X30353851Y-37150504D01*
X30355423Y-37121715D01*
X30374385Y-37048824D01*
X30413093Y-36984823D01*
X30469343Y-36932713D01*
X30540936Y-36895495D01*
X30544378Y-36894568D01*
X30553721Y-36893161D01*
X30568392Y-36891838D01*
X30589054Y-36890595D01*
X30616373Y-36889430D01*
X30651011Y-36888339D01*
X30693634Y-36887322D01*
X30744905Y-36886374D01*
X30805489Y-36885494D01*
X30876050Y-36884678D01*
X30957251Y-36883925D01*
X31049758Y-36883231D01*
X31154234Y-36882594D01*
X31271343Y-36882012D01*
X31401751Y-36881481D01*
X31546119Y-36880999D01*
X31705114Y-36880563D01*
X31879399Y-36880172D01*
X32069638Y-36879822D01*
X32276496Y-36879510D01*
X32500636Y-36879235D01*
X32742723Y-36878993D01*
X33003421Y-36878782D01*
X33283394Y-36878599D01*
X33583306Y-36878442D01*
X33903822Y-36878307D01*
X34245605Y-36878194D01*
X34609320Y-36878098D01*
X34995631Y-36878017D01*
X35263901Y-36877971D01*
X35632377Y-36877920D01*
X35978743Y-36877892D01*
X36303678Y-36877888D01*
X36607860Y-36877912D01*
X36891970Y-36877965D01*
X37156686Y-36878051D01*
X37402688Y-36878172D01*
X37630655Y-36878330D01*
X37841267Y-36878529D01*
X38035202Y-36878770D01*
X38213140Y-36879056D01*
X38375760Y-36879390D01*
X38523743Y-36879775D01*
X38657766Y-36880212D01*
X38778509Y-36880705D01*
X38886652Y-36881256D01*
X38982874Y-36881868D01*
X39067854Y-36882543D01*
X39142271Y-36883283D01*
X39206805Y-36884092D01*
X39262135Y-36884972D01*
X39308941Y-36885925D01*
X39347901Y-36886954D01*
X39379695Y-36888062D01*
X39405002Y-36889251D01*
X39424502Y-36890524D01*
X39438874Y-36891883D01*
X39448797Y-36893331D01*
X39454951Y-36894871D01*
X39486621Y-36907882D01*
X39553428Y-36950762D01*
X39603600Y-37007251D01*
X39635164Y-37074710D01*
X39646149Y-37150504D01*
X39645971Y-37166561D01*
X39643142Y-37199938D01*
X39634967Y-37230575D01*
X39619016Y-37265896D01*
X39592860Y-37313324D01*
X39585750Y-37325724D01*
X39529933Y-37422826D01*
X39466741Y-37532389D01*
X39399957Y-37647880D01*
X39333361Y-37762769D01*
X39270734Y-37870521D01*
X39215859Y-37964606D01*
X39185304Y-38016885D01*
X39116921Y-38133974D01*
X39039098Y-38267334D01*
X38953321Y-38414412D01*
X38861077Y-38572660D01*
X38763856Y-38739524D01*
X38663143Y-38912454D01*
X38562172Y-39085802D01*
X38450922Y-39276668D01*
X38339721Y-39467322D01*
X38231474Y-39652785D01*
X38129086Y-39828081D01*
X38035460Y-39988232D01*
X38028398Y-40000308D01*
X37984916Y-40074781D01*
X37933274Y-40163383D01*
X37876408Y-40261064D01*
X37817257Y-40362776D01*
X37758757Y-40463473D01*
X37703847Y-40558104D01*
X37688968Y-40583761D01*
X37634846Y-40677000D01*
X37579359Y-40772474D01*
X37525111Y-40865712D01*
X37474707Y-40952240D01*
X37430748Y-41027584D01*
X37395840Y-41087271D01*
X37365415Y-41139257D01*
X37320831Y-41215579D01*
X37270096Y-41302544D01*
X37216217Y-41394995D01*
X37162201Y-41487777D01*
X37111054Y-41575732D01*
X37077543Y-41633380D01*
X37018004Y-41735737D01*
X36954491Y-41844859D01*
X36890917Y-41954023D01*
X36831194Y-42056512D01*
X36779236Y-42145604D01*
X36754515Y-42187974D01*
X36697188Y-42286244D01*
X36634307Y-42394059D01*
X36570006Y-42504325D01*
X36508422Y-42609951D01*
X36453690Y-42703846D01*
X36415476Y-42769392D01*
X36364470Y-42856826D01*
X36313798Y-42943632D01*
X36266304Y-43024942D01*
X36224830Y-43095888D01*
X36192219Y-43151602D01*
X36177809Y-43176216D01*
X36139977Y-43241000D01*
X36103137Y-43304291D01*
X36070886Y-43359903D01*
X36046823Y-43401648D01*
X36029544Y-43431639D01*
X36001283Y-43480440D01*
X35965422Y-43542203D01*
X35924126Y-43613202D01*
X35879563Y-43689709D01*
X35833900Y-43767994D01*
X35809192Y-43810328D01*
X35752564Y-43907394D01*
X35691940Y-44011355D01*
X35631251Y-44115466D01*
X35574430Y-44212983D01*
X35525408Y-44297161D01*
X35506276Y-44330025D01*
X35459236Y-44410813D01*
X35411950Y-44492009D01*
X35367403Y-44568485D01*
X35328583Y-44635114D01*
X35298476Y-44686767D01*
X35265786Y-44741325D01*
X35224604Y-44803543D01*
X35187493Y-44849577D01*
X35151475Y-44882495D01*
X35113568Y-44905368D01*
X35070793Y-44921265D01*
X35059927Y-44924178D01*
X34984038Y-44931343D01*
X34910001Y-44916055D01*
X34841218Y-44878941D01*
X34838673Y-44877056D01*
X34827650Y-44868320D01*
X34816656Y-44858007D01*
X34804628Y-44844430D01*
X34790504Y-44825903D01*
X34773220Y-44800741D01*
X34751714Y-44767256D01*
X34724923Y-44723763D01*
X34691784Y-44668576D01*
X34651234Y-44600009D01*
X34602210Y-44516374D01*
X34543650Y-44415987D01*
X34474490Y-44297161D01*
X34452091Y-44258666D01*
X34398847Y-44167216D01*
X34339695Y-44065680D01*
X34278567Y-43960801D01*
X34219392Y-43859325D01*
X34166101Y-43767994D01*
X34124554Y-43696772D01*
X34079803Y-43619951D01*
X34038123Y-43548301D01*
X34001681Y-43485548D01*
X33972643Y-43435422D01*
X33953177Y-43401648D01*
X33944890Y-43387228D01*
X33917167Y-43339272D01*
X33882676Y-43279891D01*
X33845015Y-43215272D01*
X33807781Y-43151602D01*
X33785355Y-43113297D01*
X33745867Y-43045763D01*
X33699653Y-42966654D01*
X33649621Y-42880948D01*
X33598678Y-42793624D01*
X33549732Y-42709661D01*
X33528862Y-42673850D01*
X33470550Y-42573811D01*
X33406588Y-42464112D01*
X33341316Y-42352189D01*
X33279069Y-42245479D01*
X33224185Y-42151419D01*
X33192907Y-42097807D01*
X33134657Y-41997886D01*
X33071149Y-41888873D01*
X33006371Y-41777613D01*
X32944308Y-41670951D01*
X32888947Y-41575732D01*
X32846377Y-41502520D01*
X32792623Y-41410172D01*
X32738517Y-41317316D01*
X32687068Y-41229110D01*
X32641280Y-41150709D01*
X32604160Y-41087271D01*
X32595242Y-41072042D01*
X32557477Y-41007415D01*
X32511407Y-40928412D01*
X32459635Y-40839506D01*
X32404767Y-40745171D01*
X32349405Y-40649879D01*
X32296153Y-40558104D01*
X32286185Y-40540915D01*
X32230371Y-40444750D01*
X32171523Y-40343474D01*
X32112579Y-40242137D01*
X32056475Y-40145785D01*
X32006150Y-40059468D01*
X31964541Y-39988232D01*
X31877779Y-39839828D01*
X31775909Y-39665429D01*
X31667977Y-39480515D01*
X31556889Y-39290062D01*
X31445547Y-39099049D01*
X31336858Y-38912454D01*
X31285509Y-38824277D01*
X31186379Y-38654100D01*
X31091492Y-38491281D01*
X31002338Y-38338371D01*
X30920403Y-38197921D01*
X30847175Y-38072482D01*
X30784141Y-37964606D01*
X30776964Y-37952325D01*
X30720757Y-37855901D01*
X30657337Y-37746737D01*
X30590484Y-37631365D01*
X30563151Y-37584081D01*
X31278389Y-37584081D01*
X31280708Y-37589842D01*
X31291387Y-37610540D01*
X31310967Y-37646478D01*
X31339703Y-37698099D01*
X31377845Y-37765845D01*
X31425648Y-37850161D01*
X31483363Y-37951488D01*
X31551243Y-38070271D01*
X31629541Y-38206953D01*
X31718508Y-38361976D01*
X31818399Y-38535784D01*
X31929464Y-38728821D01*
X32051958Y-38941529D01*
X32090175Y-39007922D01*
X32136668Y-39088827D01*
X32181157Y-39166381D01*
X32221237Y-39236385D01*
X32254501Y-39294641D01*
X32278544Y-39336950D01*
X32283748Y-39346136D01*
X32309326Y-39391078D01*
X32343809Y-39451447D01*
X32385076Y-39523536D01*
X32431004Y-39603641D01*
X32479469Y-39688057D01*
X32528351Y-39773077D01*
X32573509Y-39851582D01*
X32636584Y-39961291D01*
X32703567Y-40077848D01*
X32770581Y-40194503D01*
X32833745Y-40304503D01*
X32889181Y-40401099D01*
X32932856Y-40477216D01*
X32994785Y-40585113D01*
X33061320Y-40701007D01*
X33128583Y-40818144D01*
X33192696Y-40929767D01*
X33249778Y-41029121D01*
X33299378Y-41115451D01*
X33359445Y-41220030D01*
X33421677Y-41328410D01*
X33482636Y-41434599D01*
X33538881Y-41532605D01*
X33586972Y-41616438D01*
X33630109Y-41691626D01*
X33685737Y-41788533D01*
X33746413Y-41894188D01*
X33808697Y-42002603D01*
X33869149Y-42107788D01*
X33924329Y-42203754D01*
X33937704Y-42227013D01*
X33986674Y-42312242D01*
X34034652Y-42395845D01*
X34079513Y-42474117D01*
X34119135Y-42543351D01*
X34151395Y-42599841D01*
X34174169Y-42639881D01*
X34178913Y-42648246D01*
X34208177Y-42699666D01*
X34245428Y-42764870D01*
X34289514Y-42841862D01*
X34339284Y-42928643D01*
X34393587Y-43023217D01*
X34451273Y-43123586D01*
X34511190Y-43227753D01*
X34572187Y-43333719D01*
X34633114Y-43439488D01*
X34692819Y-43543062D01*
X34750152Y-43642443D01*
X34803961Y-43735634D01*
X34853096Y-43820638D01*
X34896405Y-43895456D01*
X34932739Y-43958092D01*
X34960944Y-44006548D01*
X34979872Y-44038827D01*
X34988370Y-44052930D01*
X34989989Y-44055321D01*
X35000515Y-44064526D01*
X35011565Y-44052930D01*
X35018907Y-44040675D01*
X35037173Y-44009388D01*
X35065405Y-43960698D01*
X35102782Y-43896035D01*
X35148478Y-43816832D01*
X35201670Y-43724523D01*
X35261535Y-43620538D01*
X35327249Y-43506311D01*
X35397987Y-43383274D01*
X35472926Y-43252859D01*
X35551243Y-43116499D01*
X35632114Y-42975626D01*
X35714714Y-42831672D01*
X35798220Y-42686070D01*
X35881809Y-42540252D01*
X35964656Y-42395650D01*
X36016164Y-42305732D01*
X36084320Y-42186772D01*
X36153716Y-42065672D01*
X36222219Y-41946151D01*
X36287696Y-41831931D01*
X36348013Y-41726733D01*
X36401039Y-41634278D01*
X36444639Y-41558287D01*
X36461979Y-41528070D01*
X36507304Y-41449057D01*
X36561521Y-41354511D01*
X36622805Y-41247618D01*
X36689328Y-41131566D01*
X36759263Y-41009543D01*
X36830783Y-40884735D01*
X36902062Y-40760330D01*
X36971272Y-40639514D01*
X37024219Y-40547082D01*
X37085150Y-40440719D01*
X37143925Y-40338128D01*
X37201523Y-40237598D01*
X37258927Y-40137420D01*
X37317116Y-40035882D01*
X37377071Y-39931273D01*
X37439772Y-39821884D01*
X37506201Y-39706002D01*
X37577338Y-39581918D01*
X37654164Y-39447922D01*
X37737658Y-39302301D01*
X37828803Y-39143346D01*
X37928577Y-38969346D01*
X38037963Y-38778590D01*
X38157940Y-38569368D01*
X38166838Y-38553852D01*
X38259104Y-38392934D01*
X38340513Y-38250895D01*
X38411730Y-38126553D01*
X38473420Y-38018721D01*
X38526248Y-37926217D01*
X38570879Y-37847856D01*
X38607977Y-37782453D01*
X38638210Y-37728825D01*
X38662240Y-37685786D01*
X38680733Y-37652154D01*
X38694355Y-37626743D01*
X38703771Y-37608369D01*
X38709644Y-37595848D01*
X38712641Y-37587996D01*
X38713427Y-37583629D01*
X38712666Y-37581561D01*
X38705479Y-37581039D01*
X38676368Y-37580388D01*
X38625901Y-37579776D01*
X38555139Y-37579204D01*
X38465145Y-37578669D01*
X38356981Y-37578173D01*
X38231709Y-37577715D01*
X38090392Y-37577295D01*
X37934091Y-37576911D01*
X37763870Y-37576565D01*
X37580791Y-37576254D01*
X37385915Y-37575980D01*
X37180306Y-37575741D01*
X36965025Y-37575538D01*
X36741134Y-37575370D01*
X36509697Y-37575236D01*
X36271775Y-37575137D01*
X36028431Y-37575071D01*
X35780727Y-37575039D01*
X35529726Y-37575040D01*
X35276489Y-37575074D01*
X35022079Y-37575141D01*
X34767558Y-37575239D01*
X34513988Y-37575369D01*
X34262433Y-37575531D01*
X34013954Y-37575723D01*
X33769613Y-37575947D01*
X33530473Y-37576200D01*
X33297596Y-37576483D01*
X33072045Y-37576796D01*
X32854881Y-37577139D01*
X32647168Y-37577510D01*
X32449967Y-37577909D01*
X32264340Y-37578337D01*
X32091350Y-37578792D01*
X31932060Y-37579275D01*
X31787531Y-37579785D01*
X31658826Y-37580321D01*
X31547008Y-37580884D01*
X31453138Y-37581473D01*
X31378278Y-37582088D01*
X31323492Y-37582727D01*
X31289842Y-37583392D01*
X31278389Y-37584081D01*
X30563151Y-37584081D01*
X30523979Y-37516318D01*
X30461605Y-37408127D01*
G37*
D12*
%TO.C,BZ1*%
X95230000Y-100000000D02*
G75*
G03*
X95230000Y-100000000I-6230000J0D01*
G01*
X90499999Y-93600000D02*
G75*
G03*
X87500000Y-93600000I-1499999J-6400010D01*
G01*
%TO.C,SW3*%
X49000000Y-98750000D02*
X53500000Y-98750000D01*
X54750000Y-101250000D02*
X54750000Y-102750000D01*
X53500000Y-105250000D02*
X49000000Y-105250000D01*
X47750000Y-102750000D02*
X47750000Y-101250000D01*
%TO.C,SW2*%
X59250000Y-102750000D02*
X59250000Y-101250000D01*
X66250000Y-101250000D02*
X66250000Y-102750000D01*
X65000000Y-105250000D02*
X60500000Y-105250000D01*
X60500000Y-98750000D02*
X65000000Y-98750000D01*
%TO.C,SW1*%
X70750000Y-102750000D02*
X70750000Y-101250000D01*
X72000000Y-98750000D02*
X76500000Y-98750000D01*
X76500000Y-105250000D02*
X72000000Y-105250000D01*
X77750000Y-101250000D02*
X77750000Y-102750000D01*
%TD*%
M02*
