%TF.GenerationSoftware,KiCad,Pcbnew,(6.0.1)*%
%TF.CreationDate,2022-06-09T16:49:39-03:00*%
%TF.ProjectId,alimentador automatico para pets,616c696d-656e-4746-9164-6f7220617574,rev?*%
%TF.SameCoordinates,Original*%
%TF.FileFunction,Legend,Top*%
%TF.FilePolarity,Positive*%
%FSLAX46Y46*%
G04 Gerber Fmt 4.6, Leading zero omitted, Abs format (unit mm)*
G04 Created by KiCad (PCBNEW (6.0.1)) date 2022-06-09 16:49:39*
%MOMM*%
%LPD*%
G01*
G04 APERTURE LIST*
%ADD10C,0.150000*%
%ADD11C,0.300000*%
%ADD12C,0.250000*%
%ADD13C,0.120000*%
%ADD14C,0.127000*%
%ADD15C,0.200000*%
G04 APERTURE END LIST*
D10*
X117428571Y-44238095D02*
X117428571Y-43904761D01*
X117952380Y-43761904D02*
X117952380Y-44238095D01*
X116952380Y-44238095D01*
X116952380Y-43761904D01*
X117285714Y-43333333D02*
X117952380Y-43333333D01*
X117380952Y-43333333D02*
X117333333Y-43285714D01*
X117285714Y-43190476D01*
X117285714Y-43047619D01*
X117333333Y-42952380D01*
X117428571Y-42904761D01*
X117952380Y-42904761D01*
X117904761Y-42000000D02*
X117952380Y-42095238D01*
X117952380Y-42285714D01*
X117904761Y-42380952D01*
X117857142Y-42428571D01*
X117761904Y-42476190D01*
X117476190Y-42476190D01*
X117380952Y-42428571D01*
X117333333Y-42380952D01*
X117285714Y-42285714D01*
X117285714Y-42095238D01*
X117333333Y-42000000D01*
X117952380Y-41428571D02*
X117904761Y-41523809D01*
X117857142Y-41571428D01*
X117761904Y-41619047D01*
X117476190Y-41619047D01*
X117380952Y-41571428D01*
X117333333Y-41523809D01*
X117285714Y-41428571D01*
X117285714Y-41285714D01*
X117333333Y-41190476D01*
X117380952Y-41142857D01*
X117476190Y-41095238D01*
X117761904Y-41095238D01*
X117857142Y-41142857D01*
X117904761Y-41190476D01*
X117952380Y-41285714D01*
X117952380Y-41428571D01*
X117952380Y-40238095D02*
X116952380Y-40238095D01*
X117904761Y-40238095D02*
X117952380Y-40333333D01*
X117952380Y-40523809D01*
X117904761Y-40619047D01*
X117857142Y-40666666D01*
X117761904Y-40714285D01*
X117476190Y-40714285D01*
X117380952Y-40666666D01*
X117333333Y-40619047D01*
X117285714Y-40523809D01*
X117285714Y-40333333D01*
X117333333Y-40238095D01*
X117904761Y-39380952D02*
X117952380Y-39476190D01*
X117952380Y-39666666D01*
X117904761Y-39761904D01*
X117809523Y-39809523D01*
X117428571Y-39809523D01*
X117333333Y-39761904D01*
X117285714Y-39666666D01*
X117285714Y-39476190D01*
X117333333Y-39380952D01*
X117428571Y-39333333D01*
X117523809Y-39333333D01*
X117619047Y-39809523D01*
X117952380Y-38904761D02*
X117285714Y-38904761D01*
X117476190Y-38904761D02*
X117380952Y-38857142D01*
X117333333Y-38809523D01*
X117285714Y-38714285D01*
X117285714Y-38619047D01*
X117952380Y-61761904D02*
X117952380Y-62238095D01*
X116952380Y-62238095D01*
X117857142Y-60857142D02*
X117904761Y-60904761D01*
X117952380Y-61047619D01*
X117952380Y-61142857D01*
X117904761Y-61285714D01*
X117809523Y-61380952D01*
X117714285Y-61428571D01*
X117523809Y-61476190D01*
X117380952Y-61476190D01*
X117190476Y-61428571D01*
X117095238Y-61380952D01*
X117000000Y-61285714D01*
X116952380Y-61142857D01*
X116952380Y-61047619D01*
X117000000Y-60904761D01*
X117047619Y-60857142D01*
X117952380Y-60428571D02*
X116952380Y-60428571D01*
X116952380Y-60190476D01*
X117000000Y-60047619D01*
X117095238Y-59952380D01*
X117190476Y-59904761D01*
X117380952Y-59857142D01*
X117523809Y-59857142D01*
X117714285Y-59904761D01*
X117809523Y-59952380D01*
X117904761Y-60047619D01*
X117952380Y-60190476D01*
X117952380Y-60428571D01*
X117952380Y-58666666D02*
X116952380Y-58666666D01*
X116952380Y-58428571D01*
X117000000Y-58285714D01*
X117095238Y-58190476D01*
X117190476Y-58142857D01*
X117380952Y-58095238D01*
X117523809Y-58095238D01*
X117714285Y-58142857D01*
X117809523Y-58190476D01*
X117904761Y-58285714D01*
X117952380Y-58428571D01*
X117952380Y-58666666D01*
X117952380Y-57666666D02*
X117285714Y-57666666D01*
X116952380Y-57666666D02*
X117000000Y-57714285D01*
X117047619Y-57666666D01*
X117000000Y-57619047D01*
X116952380Y-57666666D01*
X117047619Y-57666666D01*
X117904761Y-57238095D02*
X117952380Y-57142857D01*
X117952380Y-56952380D01*
X117904761Y-56857142D01*
X117809523Y-56809523D01*
X117761904Y-56809523D01*
X117666666Y-56857142D01*
X117619047Y-56952380D01*
X117619047Y-57095238D01*
X117571428Y-57190476D01*
X117476190Y-57238095D01*
X117428571Y-57238095D01*
X117333333Y-57190476D01*
X117285714Y-57095238D01*
X117285714Y-56952380D01*
X117333333Y-56857142D01*
X117285714Y-56380952D02*
X118285714Y-56380952D01*
X117333333Y-56380952D02*
X117285714Y-56285714D01*
X117285714Y-56095238D01*
X117333333Y-56000000D01*
X117380952Y-55952380D01*
X117476190Y-55904761D01*
X117761904Y-55904761D01*
X117857142Y-55952380D01*
X117904761Y-56000000D01*
X117952380Y-56095238D01*
X117952380Y-56285714D01*
X117904761Y-56380952D01*
X117952380Y-55333333D02*
X117904761Y-55428571D01*
X117809523Y-55476190D01*
X116952380Y-55476190D01*
X117952380Y-54523809D02*
X117428571Y-54523809D01*
X117333333Y-54571428D01*
X117285714Y-54666666D01*
X117285714Y-54857142D01*
X117333333Y-54952380D01*
X117904761Y-54523809D02*
X117952380Y-54619047D01*
X117952380Y-54857142D01*
X117904761Y-54952380D01*
X117809523Y-55000000D01*
X117714285Y-55000000D01*
X117619047Y-54952380D01*
X117571428Y-54857142D01*
X117571428Y-54619047D01*
X117523809Y-54523809D01*
X117285714Y-54142857D02*
X117952380Y-53904761D01*
X117285714Y-53666666D02*
X117952380Y-53904761D01*
X118190476Y-54000000D01*
X118238095Y-54047619D01*
X118285714Y-54142857D01*
X117952380Y-75833333D02*
X116952380Y-75833333D01*
X117952380Y-74785714D02*
X117476190Y-75119047D01*
X117952380Y-75357142D02*
X116952380Y-75357142D01*
X116952380Y-74976190D01*
X117000000Y-74880952D01*
X117047619Y-74833333D01*
X117142857Y-74785714D01*
X117285714Y-74785714D01*
X117380952Y-74833333D01*
X117428571Y-74880952D01*
X117476190Y-74976190D01*
X117476190Y-75357142D01*
X117904761Y-73642857D02*
X117952380Y-73547619D01*
X117952380Y-73357142D01*
X117904761Y-73261904D01*
X117809523Y-73214285D01*
X117761904Y-73214285D01*
X117666666Y-73261904D01*
X117619047Y-73357142D01*
X117619047Y-73500000D01*
X117571428Y-73595238D01*
X117476190Y-73642857D01*
X117428571Y-73642857D01*
X117333333Y-73595238D01*
X117285714Y-73500000D01*
X117285714Y-73357142D01*
X117333333Y-73261904D01*
X117904761Y-72404761D02*
X117952380Y-72500000D01*
X117952380Y-72690476D01*
X117904761Y-72785714D01*
X117809523Y-72833333D01*
X117428571Y-72833333D01*
X117333333Y-72785714D01*
X117285714Y-72690476D01*
X117285714Y-72500000D01*
X117333333Y-72404761D01*
X117428571Y-72357142D01*
X117523809Y-72357142D01*
X117619047Y-72833333D01*
X117285714Y-71928571D02*
X117952380Y-71928571D01*
X117380952Y-71928571D02*
X117333333Y-71880952D01*
X117285714Y-71785714D01*
X117285714Y-71642857D01*
X117333333Y-71547619D01*
X117428571Y-71500000D01*
X117952380Y-71500000D01*
X117904761Y-71071428D02*
X117952380Y-70976190D01*
X117952380Y-70785714D01*
X117904761Y-70690476D01*
X117809523Y-70642857D01*
X117761904Y-70642857D01*
X117666666Y-70690476D01*
X117619047Y-70785714D01*
X117619047Y-70928571D01*
X117571428Y-71023809D01*
X117476190Y-71071428D01*
X117428571Y-71071428D01*
X117333333Y-71023809D01*
X117285714Y-70928571D01*
X117285714Y-70785714D01*
X117333333Y-70690476D01*
X117952380Y-70071428D02*
X117904761Y-70166666D01*
X117857142Y-70214285D01*
X117761904Y-70261904D01*
X117476190Y-70261904D01*
X117380952Y-70214285D01*
X117333333Y-70166666D01*
X117285714Y-70071428D01*
X117285714Y-69928571D01*
X117333333Y-69833333D01*
X117380952Y-69785714D01*
X117476190Y-69738095D01*
X117761904Y-69738095D01*
X117857142Y-69785714D01*
X117904761Y-69833333D01*
X117952380Y-69928571D01*
X117952380Y-70071428D01*
X117952380Y-69309523D02*
X117285714Y-69309523D01*
X117476190Y-69309523D02*
X117380952Y-69261904D01*
X117333333Y-69214285D01*
X117285714Y-69119047D01*
X117285714Y-69023809D01*
X117952380Y-86833333D02*
X116952380Y-86833333D01*
X117666666Y-86500000D01*
X116952380Y-86166666D01*
X117952380Y-86166666D01*
X117952380Y-85547619D02*
X117904761Y-85642857D01*
X117857142Y-85690476D01*
X117761904Y-85738095D01*
X117476190Y-85738095D01*
X117380952Y-85690476D01*
X117333333Y-85642857D01*
X117285714Y-85547619D01*
X117285714Y-85404761D01*
X117333333Y-85309523D01*
X117380952Y-85261904D01*
X117476190Y-85214285D01*
X117761904Y-85214285D01*
X117857142Y-85261904D01*
X117904761Y-85309523D01*
X117952380Y-85404761D01*
X117952380Y-85547619D01*
X117285714Y-84928571D02*
X117285714Y-84547619D01*
X116952380Y-84785714D02*
X117809523Y-84785714D01*
X117904761Y-84738095D01*
X117952380Y-84642857D01*
X117952380Y-84547619D01*
X117952380Y-84071428D02*
X117904761Y-84166666D01*
X117857142Y-84214285D01*
X117761904Y-84261904D01*
X117476190Y-84261904D01*
X117380952Y-84214285D01*
X117333333Y-84166666D01*
X117285714Y-84071428D01*
X117285714Y-83928571D01*
X117333333Y-83833333D01*
X117380952Y-83785714D01*
X117476190Y-83738095D01*
X117761904Y-83738095D01*
X117857142Y-83785714D01*
X117904761Y-83833333D01*
X117952380Y-83928571D01*
X117952380Y-84071428D01*
X117952380Y-83309523D02*
X117285714Y-83309523D01*
X117476190Y-83309523D02*
X117380952Y-83261904D01*
X117333333Y-83214285D01*
X117285714Y-83119047D01*
X117285714Y-83023809D01*
X24500000Y-36000000D02*
X24500000Y-54500000D01*
X32000000Y-36000000D02*
X24500000Y-36000000D01*
X32000000Y-54500000D02*
X32000000Y-36000000D01*
X24500000Y-54500000D02*
X32000000Y-54500000D01*
X40000000Y-33000000D02*
X40000000Y-39000000D01*
X26000000Y-41000000D02*
X31000000Y-41000000D01*
X24500000Y-57000000D02*
X31500000Y-57000000D01*
X31500000Y-57000000D02*
X31500000Y-74500000D01*
X31500000Y-74500000D02*
X24500000Y-74500000D01*
X24500000Y-74500000D02*
X24500000Y-57000000D01*
D11*
X28607142Y-90907142D02*
X28535714Y-91121428D01*
X28464285Y-91192857D01*
X28321428Y-91264285D01*
X28107142Y-91264285D01*
X27964285Y-91192857D01*
X27892857Y-91121428D01*
X27821428Y-90978571D01*
X27821428Y-90407142D01*
X29321428Y-90407142D01*
X29321428Y-90907142D01*
X29250000Y-91050000D01*
X29178571Y-91121428D01*
X29035714Y-91192857D01*
X28892857Y-91192857D01*
X28750000Y-91121428D01*
X28678571Y-91050000D01*
X28607142Y-90907142D01*
X28607142Y-90407142D01*
X29250000Y-83892857D02*
X29321428Y-83750000D01*
X29321428Y-83535714D01*
X29250000Y-83321428D01*
X29107142Y-83178571D01*
X28964285Y-83107142D01*
X28678571Y-83035714D01*
X28464285Y-83035714D01*
X28178571Y-83107142D01*
X28035714Y-83178571D01*
X27892857Y-83321428D01*
X27821428Y-83535714D01*
X27821428Y-83678571D01*
X27892857Y-83892857D01*
X27964285Y-83964285D01*
X28464285Y-83964285D01*
X28464285Y-83678571D01*
X28107142Y-71000000D02*
X28035714Y-71214285D01*
X27964285Y-71285714D01*
X27821428Y-71357142D01*
X27607142Y-71357142D01*
X27464285Y-71285714D01*
X27392857Y-71214285D01*
X27321428Y-71071428D01*
X27321428Y-70500000D01*
X28821428Y-70500000D01*
X28821428Y-71000000D01*
X28750000Y-71142857D01*
X28678571Y-71214285D01*
X28535714Y-71285714D01*
X28392857Y-71285714D01*
X28250000Y-71214285D01*
X28178571Y-71142857D01*
X28107142Y-71000000D01*
X28107142Y-70500000D01*
X27321428Y-72642857D02*
X28107142Y-72642857D01*
X28250000Y-72571428D01*
X28321428Y-72428571D01*
X28321428Y-72142857D01*
X28250000Y-72000000D01*
X27392857Y-72642857D02*
X27321428Y-72500000D01*
X27321428Y-72142857D01*
X27392857Y-72000000D01*
X27535714Y-71928571D01*
X27678571Y-71928571D01*
X27821428Y-72000000D01*
X27892857Y-72142857D01*
X27892857Y-72500000D01*
X27964285Y-72642857D01*
X28321428Y-73142857D02*
X28321428Y-73714285D01*
X28821428Y-73357142D02*
X27535714Y-73357142D01*
X27392857Y-73428571D01*
X27321428Y-73571428D01*
X27321428Y-73714285D01*
X35785714Y-33107142D02*
X36285714Y-33107142D01*
X36285714Y-32321428D02*
X36285714Y-33821428D01*
X35571428Y-33821428D01*
X42821428Y-26750000D02*
X42107142Y-26750000D01*
X42964285Y-26321428D02*
X42464285Y-27821428D01*
X41964285Y-26321428D01*
X40607142Y-26464285D02*
X40678571Y-26392857D01*
X40892857Y-26321428D01*
X41035714Y-26321428D01*
X41250000Y-26392857D01*
X41392857Y-26535714D01*
X41464285Y-26678571D01*
X41535714Y-26964285D01*
X41535714Y-27178571D01*
X41464285Y-27464285D01*
X41392857Y-27607142D01*
X41250000Y-27750000D01*
X41035714Y-27821428D01*
X40892857Y-27821428D01*
X40678571Y-27750000D01*
X40607142Y-27678571D01*
X38821428Y-26321428D02*
X38821428Y-27821428D01*
X38107142Y-26321428D02*
X38107142Y-27821428D01*
X37250000Y-26321428D01*
X37250000Y-27821428D01*
X27821428Y-94964285D02*
X28535714Y-94464285D01*
X27821428Y-94107142D02*
X29321428Y-94107142D01*
X29321428Y-94678571D01*
X29250000Y-94821428D01*
X29178571Y-94892857D01*
X29035714Y-94964285D01*
X28821428Y-94964285D01*
X28678571Y-94892857D01*
X28607142Y-94821428D01*
X28535714Y-94678571D01*
X28535714Y-94107142D01*
X27478571Y-45700000D02*
X27550000Y-45771428D01*
X27621428Y-45914285D01*
X27621428Y-46271428D01*
X27550000Y-46414285D01*
X27478571Y-46485714D01*
X27335714Y-46557142D01*
X27192857Y-46557142D01*
X26978571Y-46485714D01*
X26121428Y-45628571D01*
X26121428Y-46557142D01*
X27621428Y-47914285D02*
X27621428Y-47200000D01*
X26907142Y-47128571D01*
X26978571Y-47200000D01*
X27050000Y-47342857D01*
X27050000Y-47700000D01*
X26978571Y-47842857D01*
X26907142Y-47914285D01*
X26764285Y-47985714D01*
X26407142Y-47985714D01*
X26264285Y-47914285D01*
X26192857Y-47842857D01*
X26121428Y-47700000D01*
X26121428Y-47342857D01*
X26192857Y-47200000D01*
X26264285Y-47128571D01*
X27621428Y-48914285D02*
X27621428Y-49057142D01*
X27550000Y-49200000D01*
X27478571Y-49271428D01*
X27335714Y-49342857D01*
X27050000Y-49414285D01*
X26692857Y-49414285D01*
X26407142Y-49342857D01*
X26264285Y-49271428D01*
X26192857Y-49200000D01*
X26121428Y-49057142D01*
X26121428Y-48914285D01*
X26192857Y-48771428D01*
X26264285Y-48700000D01*
X26407142Y-48628571D01*
X26692857Y-48557142D01*
X27050000Y-48557142D01*
X27335714Y-48628571D01*
X27478571Y-48700000D01*
X27550000Y-48771428D01*
X27621428Y-48914285D01*
X26121428Y-50057142D02*
X27121428Y-50057142D01*
X26978571Y-50057142D02*
X27050000Y-50128571D01*
X27121428Y-50271428D01*
X27121428Y-50485714D01*
X27050000Y-50628571D01*
X26907142Y-50700000D01*
X26121428Y-50700000D01*
X26907142Y-50700000D02*
X27050000Y-50771428D01*
X27121428Y-50914285D01*
X27121428Y-51128571D01*
X27050000Y-51271428D01*
X26907142Y-51342857D01*
X26121428Y-51342857D01*
X26550000Y-51985714D02*
X26550000Y-52700000D01*
X26121428Y-51842857D02*
X27621428Y-52342857D01*
X26121428Y-52842857D01*
D12*
X30528928Y-78428571D02*
X30528928Y-77714285D01*
X32028928Y-77714285D01*
X30528928Y-79142857D02*
X30600357Y-79000000D01*
X30671785Y-78928571D01*
X30814642Y-78857142D01*
X31243214Y-78857142D01*
X31386071Y-78928571D01*
X31457500Y-79000000D01*
X31528928Y-79142857D01*
X31528928Y-79357142D01*
X31457500Y-79500000D01*
X31386071Y-79571428D01*
X31243214Y-79642857D01*
X30814642Y-79642857D01*
X30671785Y-79571428D01*
X30600357Y-79500000D01*
X30528928Y-79357142D01*
X30528928Y-79142857D01*
X30528928Y-80928571D02*
X31314642Y-80928571D01*
X31457500Y-80857142D01*
X31528928Y-80714285D01*
X31528928Y-80428571D01*
X31457500Y-80285714D01*
X30600357Y-80928571D02*
X30528928Y-80785714D01*
X30528928Y-80428571D01*
X30600357Y-80285714D01*
X30743214Y-80214285D01*
X30886071Y-80214285D01*
X31028928Y-80285714D01*
X31100357Y-80428571D01*
X31100357Y-80785714D01*
X31171785Y-80928571D01*
X30528928Y-82285714D02*
X32028928Y-82285714D01*
X30600357Y-82285714D02*
X30528928Y-82142857D01*
X30528928Y-81857142D01*
X30600357Y-81714285D01*
X30671785Y-81642857D01*
X30814642Y-81571428D01*
X31243214Y-81571428D01*
X31386071Y-81642857D01*
X31457500Y-81714285D01*
X31528928Y-81857142D01*
X31528928Y-82142857D01*
X31457500Y-82285714D01*
X28185357Y-78928571D02*
X28113928Y-78785714D01*
X28113928Y-78500000D01*
X28185357Y-78357142D01*
X28256785Y-78285714D01*
X28399642Y-78214285D01*
X28828214Y-78214285D01*
X28971071Y-78285714D01*
X29042500Y-78357142D01*
X29113928Y-78500000D01*
X29113928Y-78785714D01*
X29042500Y-78928571D01*
X28185357Y-80142857D02*
X28113928Y-80000000D01*
X28113928Y-79714285D01*
X28185357Y-79571428D01*
X28328214Y-79500000D01*
X28899642Y-79500000D01*
X29042500Y-79571428D01*
X29113928Y-79714285D01*
X29113928Y-80000000D01*
X29042500Y-80142857D01*
X28899642Y-80214285D01*
X28756785Y-80214285D01*
X28613928Y-79500000D01*
X28113928Y-81071428D02*
X28185357Y-80928571D01*
X28328214Y-80857142D01*
X29613928Y-80857142D01*
X28113928Y-81857142D02*
X28185357Y-81714285D01*
X28328214Y-81642857D01*
X29613928Y-81642857D01*
D11*
X44428571Y-32321428D02*
X44428571Y-33821428D01*
X43571428Y-32321428D01*
X43571428Y-33821428D01*
X29321428Y-86357142D02*
X27821428Y-86714285D01*
X28892857Y-87000000D01*
X27821428Y-87285714D01*
X29321428Y-87642857D01*
X30107142Y-69571428D02*
X30107142Y-68428571D01*
X30678571Y-69000000D02*
X29535714Y-69000000D01*
X26107142Y-69571428D02*
X26107142Y-68428571D01*
D10*
%TO.C,J3*%
X114391666Y-76997380D02*
X114391666Y-77711666D01*
X114344047Y-77854523D01*
X114248809Y-77949761D01*
X114105952Y-77997380D01*
X114010714Y-77997380D01*
X114772619Y-76997380D02*
X115391666Y-76997380D01*
X115058333Y-77378333D01*
X115201190Y-77378333D01*
X115296428Y-77425952D01*
X115344047Y-77473571D01*
X115391666Y-77568809D01*
X115391666Y-77806904D01*
X115344047Y-77902142D01*
X115296428Y-77949761D01*
X115201190Y-77997380D01*
X114915476Y-77997380D01*
X114820238Y-77949761D01*
X114772619Y-77902142D01*
%TO.C,J4*%
X114166666Y-89057380D02*
X114166666Y-89771666D01*
X114119047Y-89914523D01*
X114023809Y-90009761D01*
X113880952Y-90057380D01*
X113785714Y-90057380D01*
X115071428Y-89390714D02*
X115071428Y-90057380D01*
X114833333Y-89009761D02*
X114595238Y-89724047D01*
X115214285Y-89724047D01*
%TO.C,D1*%
X96072380Y-54738095D02*
X95072380Y-54738095D01*
X95072380Y-54500000D01*
X95120000Y-54357142D01*
X95215238Y-54261904D01*
X95310476Y-54214285D01*
X95500952Y-54166666D01*
X95643809Y-54166666D01*
X95834285Y-54214285D01*
X95929523Y-54261904D01*
X96024761Y-54357142D01*
X96072380Y-54500000D01*
X96072380Y-54738095D01*
X96072380Y-53214285D02*
X96072380Y-53785714D01*
X96072380Y-53500000D02*
X95072380Y-53500000D01*
X95215238Y-53595238D01*
X95310476Y-53690476D01*
X95358095Y-53785714D01*
X95752380Y-50451904D02*
X94752380Y-50451904D01*
X95752380Y-49880476D02*
X95180952Y-50309047D01*
X94752380Y-49880476D02*
X95323809Y-50451904D01*
%TO.C,R6*%
X96322380Y-43916666D02*
X95846190Y-44250000D01*
X96322380Y-44488095D02*
X95322380Y-44488095D01*
X95322380Y-44107142D01*
X95370000Y-44011904D01*
X95417619Y-43964285D01*
X95512857Y-43916666D01*
X95655714Y-43916666D01*
X95750952Y-43964285D01*
X95798571Y-44011904D01*
X95846190Y-44107142D01*
X95846190Y-44488095D01*
X95322380Y-43059523D02*
X95322380Y-43250000D01*
X95370000Y-43345238D01*
X95417619Y-43392857D01*
X95560476Y-43488095D01*
X95750952Y-43535714D01*
X96131904Y-43535714D01*
X96227142Y-43488095D01*
X96274761Y-43440476D01*
X96322380Y-43345238D01*
X96322380Y-43154761D01*
X96274761Y-43059523D01*
X96227142Y-43011904D01*
X96131904Y-42964285D01*
X95893809Y-42964285D01*
X95798571Y-43011904D01*
X95750952Y-43059523D01*
X95703333Y-43154761D01*
X95703333Y-43345238D01*
X95750952Y-43440476D01*
X95798571Y-43488095D01*
X95893809Y-43535714D01*
%TO.C,U3*%
X53147380Y-56816904D02*
X53956904Y-56816904D01*
X54052142Y-56769285D01*
X54099761Y-56721666D01*
X54147380Y-56626428D01*
X54147380Y-56435952D01*
X54099761Y-56340714D01*
X54052142Y-56293095D01*
X53956904Y-56245476D01*
X53147380Y-56245476D01*
X53147380Y-55864523D02*
X53147380Y-55245476D01*
X53528333Y-55578809D01*
X53528333Y-55435952D01*
X53575952Y-55340714D01*
X53623571Y-55293095D01*
X53718809Y-55245476D01*
X53956904Y-55245476D01*
X54052142Y-55293095D01*
X54099761Y-55340714D01*
X54147380Y-55435952D01*
X54147380Y-55721666D01*
X54099761Y-55816904D01*
X54052142Y-55864523D01*
%TO.C,J2*%
X29666666Y-96952380D02*
X29666666Y-97666666D01*
X29619047Y-97809523D01*
X29523809Y-97904761D01*
X29380952Y-97952380D01*
X29285714Y-97952380D01*
X30095238Y-97047619D02*
X30142857Y-97000000D01*
X30238095Y-96952380D01*
X30476190Y-96952380D01*
X30571428Y-97000000D01*
X30619047Y-97047619D01*
X30666666Y-97142857D01*
X30666666Y-97238095D01*
X30619047Y-97380952D01*
X30047619Y-97952380D01*
X30666666Y-97952380D01*
%TO.C,R7*%
X101333333Y-90582380D02*
X101000000Y-90106190D01*
X100761904Y-90582380D02*
X100761904Y-89582380D01*
X101142857Y-89582380D01*
X101238095Y-89630000D01*
X101285714Y-89677619D01*
X101333333Y-89772857D01*
X101333333Y-89915714D01*
X101285714Y-90010952D01*
X101238095Y-90058571D01*
X101142857Y-90106190D01*
X100761904Y-90106190D01*
X101666666Y-89582380D02*
X102333333Y-89582380D01*
X101904761Y-90582380D01*
%TO.C,R3*%
X68833333Y-67082380D02*
X68500000Y-66606190D01*
X68261904Y-67082380D02*
X68261904Y-66082380D01*
X68642857Y-66082380D01*
X68738095Y-66130000D01*
X68785714Y-66177619D01*
X68833333Y-66272857D01*
X68833333Y-66415714D01*
X68785714Y-66510952D01*
X68738095Y-66558571D01*
X68642857Y-66606190D01*
X68261904Y-66606190D01*
X69166666Y-66082380D02*
X69785714Y-66082380D01*
X69452380Y-66463333D01*
X69595238Y-66463333D01*
X69690476Y-66510952D01*
X69738095Y-66558571D01*
X69785714Y-66653809D01*
X69785714Y-66891904D01*
X69738095Y-66987142D01*
X69690476Y-67034761D01*
X69595238Y-67082380D01*
X69309523Y-67082380D01*
X69214285Y-67034761D01*
X69166666Y-66987142D01*
%TO.C,C1*%
X58971142Y-63916666D02*
X59018761Y-63964285D01*
X59066380Y-64107142D01*
X59066380Y-64202380D01*
X59018761Y-64345238D01*
X58923523Y-64440476D01*
X58828285Y-64488095D01*
X58637809Y-64535714D01*
X58494952Y-64535714D01*
X58304476Y-64488095D01*
X58209238Y-64440476D01*
X58114000Y-64345238D01*
X58066380Y-64202380D01*
X58066380Y-64107142D01*
X58114000Y-63964285D01*
X58161619Y-63916666D01*
X59066380Y-62964285D02*
X59066380Y-63535714D01*
X59066380Y-63250000D02*
X58066380Y-63250000D01*
X58209238Y-63345238D01*
X58304476Y-63440476D01*
X58352095Y-63535714D01*
%TO.C,J1*%
X43452380Y-35833333D02*
X44166666Y-35833333D01*
X44309523Y-35880952D01*
X44404761Y-35976190D01*
X44452380Y-36119047D01*
X44452380Y-36214285D01*
X44452380Y-34833333D02*
X44452380Y-35404761D01*
X44452380Y-35119047D02*
X43452380Y-35119047D01*
X43595238Y-35214285D01*
X43690476Y-35309523D01*
X43738095Y-35404761D01*
%TO.C,R5*%
X82582380Y-54166666D02*
X82106190Y-54500000D01*
X82582380Y-54738095D02*
X81582380Y-54738095D01*
X81582380Y-54357142D01*
X81630000Y-54261904D01*
X81677619Y-54214285D01*
X81772857Y-54166666D01*
X81915714Y-54166666D01*
X82010952Y-54214285D01*
X82058571Y-54261904D01*
X82106190Y-54357142D01*
X82106190Y-54738095D01*
X81582380Y-53261904D02*
X81582380Y-53738095D01*
X82058571Y-53785714D01*
X82010952Y-53738095D01*
X81963333Y-53642857D01*
X81963333Y-53404761D01*
X82010952Y-53309523D01*
X82058571Y-53261904D01*
X82153809Y-53214285D01*
X82391904Y-53214285D01*
X82487142Y-53261904D01*
X82534761Y-53309523D01*
X82582380Y-53404761D01*
X82582380Y-53642857D01*
X82534761Y-53738095D01*
X82487142Y-53785714D01*
%TO.C,Q1*%
X101174761Y-99757619D02*
X101079523Y-99710000D01*
X100984285Y-99614761D01*
X100841428Y-99471904D01*
X100746190Y-99424285D01*
X100650952Y-99424285D01*
X100698571Y-99662380D02*
X100603333Y-99614761D01*
X100508095Y-99519523D01*
X100460476Y-99329047D01*
X100460476Y-98995714D01*
X100508095Y-98805238D01*
X100603333Y-98710000D01*
X100698571Y-98662380D01*
X100889047Y-98662380D01*
X100984285Y-98710000D01*
X101079523Y-98805238D01*
X101127142Y-98995714D01*
X101127142Y-99329047D01*
X101079523Y-99519523D01*
X100984285Y-99614761D01*
X100889047Y-99662380D01*
X100698571Y-99662380D01*
X102079523Y-99662380D02*
X101508095Y-99662380D01*
X101793809Y-99662380D02*
X101793809Y-98662380D01*
X101698571Y-98805238D01*
X101603333Y-98900476D01*
X101508095Y-98948095D01*
%TO.C,J6*%
X114166666Y-48772380D02*
X114166666Y-49486666D01*
X114119047Y-49629523D01*
X114023809Y-49724761D01*
X113880952Y-49772380D01*
X113785714Y-49772380D01*
X115071428Y-48772380D02*
X114880952Y-48772380D01*
X114785714Y-48820000D01*
X114738095Y-48867619D01*
X114642857Y-49010476D01*
X114595238Y-49200952D01*
X114595238Y-49581904D01*
X114642857Y-49677142D01*
X114690476Y-49724761D01*
X114785714Y-49772380D01*
X114976190Y-49772380D01*
X115071428Y-49724761D01*
X115119047Y-49677142D01*
X115166666Y-49581904D01*
X115166666Y-49343809D01*
X115119047Y-49248571D01*
X115071428Y-49200952D01*
X114976190Y-49153333D01*
X114785714Y-49153333D01*
X114690476Y-49200952D01*
X114642857Y-49248571D01*
X114595238Y-49343809D01*
%TO.C,D2*%
X82832380Y-44488095D02*
X81832380Y-44488095D01*
X81832380Y-44250000D01*
X81880000Y-44107142D01*
X81975238Y-44011904D01*
X82070476Y-43964285D01*
X82260952Y-43916666D01*
X82403809Y-43916666D01*
X82594285Y-43964285D01*
X82689523Y-44011904D01*
X82784761Y-44107142D01*
X82832380Y-44250000D01*
X82832380Y-44488095D01*
X81927619Y-43535714D02*
X81880000Y-43488095D01*
X81832380Y-43392857D01*
X81832380Y-43154761D01*
X81880000Y-43059523D01*
X81927619Y-43011904D01*
X82022857Y-42964285D01*
X82118095Y-42964285D01*
X82260952Y-43011904D01*
X82832380Y-43583333D01*
X82832380Y-42964285D01*
X83152380Y-47821904D02*
X82152380Y-47821904D01*
X83152380Y-47250476D02*
X82580952Y-47679047D01*
X82152380Y-47250476D02*
X82723809Y-47821904D01*
%TO.C,J7*%
X27666666Y-55452380D02*
X27666666Y-56166666D01*
X27619047Y-56309523D01*
X27523809Y-56404761D01*
X27380952Y-56452380D01*
X27285714Y-56452380D01*
X28047619Y-55452380D02*
X28714285Y-55452380D01*
X28285714Y-56452380D01*
%TO.C,R2*%
X105023333Y-84822380D02*
X104690000Y-84346190D01*
X104451904Y-84822380D02*
X104451904Y-83822380D01*
X104832857Y-83822380D01*
X104928095Y-83870000D01*
X104975714Y-83917619D01*
X105023333Y-84012857D01*
X105023333Y-84155714D01*
X104975714Y-84250952D01*
X104928095Y-84298571D01*
X104832857Y-84346190D01*
X104451904Y-84346190D01*
X105404285Y-83917619D02*
X105451904Y-83870000D01*
X105547142Y-83822380D01*
X105785238Y-83822380D01*
X105880476Y-83870000D01*
X105928095Y-83917619D01*
X105975714Y-84012857D01*
X105975714Y-84108095D01*
X105928095Y-84250952D01*
X105356666Y-84822380D01*
X105975714Y-84822380D01*
%TO.C,C2*%
X70357142Y-61089317D02*
X70404761Y-61136936D01*
X70452380Y-61279793D01*
X70452380Y-61375031D01*
X70404761Y-61517889D01*
X70309523Y-61613127D01*
X70214285Y-61660746D01*
X70023809Y-61708365D01*
X69880952Y-61708365D01*
X69690476Y-61660746D01*
X69595238Y-61613127D01*
X69500000Y-61517889D01*
X69452380Y-61375031D01*
X69452380Y-61279793D01*
X69500000Y-61136936D01*
X69547619Y-61089317D01*
X69547619Y-60708365D02*
X69500000Y-60660746D01*
X69452380Y-60565508D01*
X69452380Y-60327412D01*
X69500000Y-60232174D01*
X69547619Y-60184555D01*
X69642857Y-60136936D01*
X69738095Y-60136936D01*
X69880952Y-60184555D01*
X70452380Y-60755984D01*
X70452380Y-60136936D01*
%TO.C,J8*%
X114166666Y-63722380D02*
X114166666Y-64436666D01*
X114119047Y-64579523D01*
X114023809Y-64674761D01*
X113880952Y-64722380D01*
X113785714Y-64722380D01*
X114785714Y-64150952D02*
X114690476Y-64103333D01*
X114642857Y-64055714D01*
X114595238Y-63960476D01*
X114595238Y-63912857D01*
X114642857Y-63817619D01*
X114690476Y-63770000D01*
X114785714Y-63722380D01*
X114976190Y-63722380D01*
X115071428Y-63770000D01*
X115119047Y-63817619D01*
X115166666Y-63912857D01*
X115166666Y-63960476D01*
X115119047Y-64055714D01*
X115071428Y-64103333D01*
X114976190Y-64150952D01*
X114785714Y-64150952D01*
X114690476Y-64198571D01*
X114642857Y-64246190D01*
X114595238Y-64341428D01*
X114595238Y-64531904D01*
X114642857Y-64627142D01*
X114690476Y-64674761D01*
X114785714Y-64722380D01*
X114976190Y-64722380D01*
X115071428Y-64674761D01*
X115119047Y-64627142D01*
X115166666Y-64531904D01*
X115166666Y-64341428D01*
X115119047Y-64246190D01*
X115071428Y-64198571D01*
X114976190Y-64150952D01*
%TO.C,J5*%
X27916666Y-34452380D02*
X27916666Y-35166666D01*
X27869047Y-35309523D01*
X27773809Y-35404761D01*
X27630952Y-35452380D01*
X27535714Y-35452380D01*
X28869047Y-34452380D02*
X28392857Y-34452380D01*
X28345238Y-34928571D01*
X28392857Y-34880952D01*
X28488095Y-34833333D01*
X28726190Y-34833333D01*
X28821428Y-34880952D01*
X28869047Y-34928571D01*
X28916666Y-35023809D01*
X28916666Y-35261904D01*
X28869047Y-35357142D01*
X28821428Y-35404761D01*
X28726190Y-35452380D01*
X28488095Y-35452380D01*
X28392857Y-35404761D01*
X28345238Y-35357142D01*
%TO.C,PS1*%
X44335714Y-39449880D02*
X44335714Y-38449880D01*
X44716666Y-38449880D01*
X44811904Y-38497500D01*
X44859523Y-38545119D01*
X44907142Y-38640357D01*
X44907142Y-38783214D01*
X44859523Y-38878452D01*
X44811904Y-38926071D01*
X44716666Y-38973690D01*
X44335714Y-38973690D01*
X45288095Y-39402261D02*
X45430952Y-39449880D01*
X45669047Y-39449880D01*
X45764285Y-39402261D01*
X45811904Y-39354642D01*
X45859523Y-39259404D01*
X45859523Y-39164166D01*
X45811904Y-39068928D01*
X45764285Y-39021309D01*
X45669047Y-38973690D01*
X45478571Y-38926071D01*
X45383333Y-38878452D01*
X45335714Y-38830833D01*
X45288095Y-38735595D01*
X45288095Y-38640357D01*
X45335714Y-38545119D01*
X45383333Y-38497500D01*
X45478571Y-38449880D01*
X45716666Y-38449880D01*
X45859523Y-38497500D01*
X46811904Y-39449880D02*
X46240476Y-39449880D01*
X46526190Y-39449880D02*
X46526190Y-38449880D01*
X46430952Y-38592738D01*
X46335714Y-38687976D01*
X46240476Y-38735595D01*
%TO.C,R1*%
X87082380Y-43916666D02*
X86606190Y-44250000D01*
X87082380Y-44488095D02*
X86082380Y-44488095D01*
X86082380Y-44107142D01*
X86130000Y-44011904D01*
X86177619Y-43964285D01*
X86272857Y-43916666D01*
X86415714Y-43916666D01*
X86510952Y-43964285D01*
X86558571Y-44011904D01*
X86606190Y-44107142D01*
X86606190Y-44488095D01*
X87082380Y-42964285D02*
X87082380Y-43535714D01*
X87082380Y-43250000D02*
X86082380Y-43250000D01*
X86225238Y-43345238D01*
X86320476Y-43440476D01*
X86368095Y-43535714D01*
%TO.C,R4*%
X91822380Y-54166666D02*
X91346190Y-54500000D01*
X91822380Y-54738095D02*
X90822380Y-54738095D01*
X90822380Y-54357142D01*
X90870000Y-54261904D01*
X90917619Y-54214285D01*
X91012857Y-54166666D01*
X91155714Y-54166666D01*
X91250952Y-54214285D01*
X91298571Y-54261904D01*
X91346190Y-54357142D01*
X91346190Y-54738095D01*
X91155714Y-53309523D02*
X91822380Y-53309523D01*
X90774761Y-53547619D02*
X91489047Y-53785714D01*
X91489047Y-53166666D01*
%TO.C,U2*%
X52761904Y-87017619D02*
X52761904Y-86208095D01*
X52714285Y-86112857D01*
X52666666Y-86065238D01*
X52571428Y-86017619D01*
X52380952Y-86017619D01*
X52285714Y-86065238D01*
X52238095Y-86112857D01*
X52190476Y-86208095D01*
X52190476Y-87017619D01*
X51761904Y-86922380D02*
X51714285Y-86970000D01*
X51619047Y-87017619D01*
X51380952Y-87017619D01*
X51285714Y-86970000D01*
X51238095Y-86922380D01*
X51190476Y-86827142D01*
X51190476Y-86731904D01*
X51238095Y-86589047D01*
X51809523Y-86017619D01*
X51190476Y-86017619D01*
%TO.C,U1*%
X77883095Y-25592380D02*
X77883095Y-26401904D01*
X77930714Y-26497142D01*
X77978333Y-26544761D01*
X78073571Y-26592380D01*
X78264047Y-26592380D01*
X78359285Y-26544761D01*
X78406904Y-26497142D01*
X78454523Y-26401904D01*
X78454523Y-25592380D01*
X79454523Y-26592380D02*
X78883095Y-26592380D01*
X79168809Y-26592380D02*
X79168809Y-25592380D01*
X79073571Y-25735238D01*
X78978333Y-25830476D01*
X78883095Y-25878095D01*
%TO.C,D4*%
X100761904Y-95582380D02*
X100761904Y-94582380D01*
X101000000Y-94582380D01*
X101142857Y-94630000D01*
X101238095Y-94725238D01*
X101285714Y-94820476D01*
X101333333Y-95010952D01*
X101333333Y-95153809D01*
X101285714Y-95344285D01*
X101238095Y-95439523D01*
X101142857Y-95534761D01*
X101000000Y-95582380D01*
X100761904Y-95582380D01*
X102190476Y-94915714D02*
X102190476Y-95582380D01*
X101952380Y-94534761D02*
X101714285Y-95249047D01*
X102333333Y-95249047D01*
X97428095Y-95902380D02*
X97428095Y-94902380D01*
X97999523Y-95902380D02*
X97570952Y-95330952D01*
X97999523Y-94902380D02*
X97428095Y-95473809D01*
D13*
%TO.C,J3*%
X113395000Y-73505000D02*
X113395000Y-68365000D01*
X114725000Y-76105000D02*
X113395000Y-76105000D01*
X116055000Y-68365000D02*
X113395000Y-68365000D01*
X116055000Y-73505000D02*
X116055000Y-68365000D01*
X116055000Y-73505000D02*
X113395000Y-73505000D01*
X113395000Y-76105000D02*
X113395000Y-74775000D01*
%TO.C,J4*%
X115830000Y-86005000D02*
X115830000Y-80865000D01*
X115830000Y-88605000D02*
X114500000Y-88605000D01*
X115830000Y-86005000D02*
X113170000Y-86005000D01*
X115830000Y-80865000D02*
X113170000Y-80865000D01*
X115830000Y-87275000D02*
X115830000Y-88605000D01*
X113170000Y-86005000D02*
X113170000Y-80865000D01*
%TO.C,G\u002A\u002A\u002A*%
G36*
X29873909Y-54094406D02*
G01*
X29709667Y-54094406D01*
X29709667Y-52139730D01*
X29126458Y-52140038D01*
X29001133Y-52140008D01*
X28891712Y-52139773D01*
X28797677Y-52139326D01*
X28718509Y-52138658D01*
X28653689Y-52137762D01*
X28602700Y-52136630D01*
X28565021Y-52135256D01*
X28540136Y-52133631D01*
X28527524Y-52131747D01*
X28526280Y-52131264D01*
X28522699Y-52129708D01*
X28519336Y-52128656D01*
X28516185Y-52127607D01*
X28513239Y-52126056D01*
X28510490Y-52123501D01*
X28507933Y-52119439D01*
X28505559Y-52113366D01*
X28503363Y-52104779D01*
X28501338Y-52093176D01*
X28499476Y-52078053D01*
X28497771Y-52058906D01*
X28496216Y-52035234D01*
X28494804Y-52006533D01*
X28493654Y-51975687D01*
X28650308Y-51975687D01*
X29709667Y-51975687D01*
X29873909Y-51975687D01*
X30925057Y-51975687D01*
X30925057Y-46457161D01*
X29873909Y-46457161D01*
X29873909Y-51975687D01*
X29709667Y-51975687D01*
X29709667Y-46457161D01*
X28650308Y-46457161D01*
X28650308Y-51975687D01*
X28493654Y-51975687D01*
X28493528Y-51972299D01*
X28492382Y-51932030D01*
X28491358Y-51885223D01*
X28490450Y-51831374D01*
X28489650Y-51769980D01*
X28488953Y-51700538D01*
X28488351Y-51622546D01*
X28487836Y-51535500D01*
X28487404Y-51438897D01*
X28487046Y-51332233D01*
X28486755Y-51215007D01*
X28486525Y-51086714D01*
X28486349Y-50946851D01*
X28486221Y-50794916D01*
X28486132Y-50630406D01*
X28486077Y-50452816D01*
X28486049Y-50261645D01*
X28486040Y-50056389D01*
X28486044Y-49836544D01*
X28486054Y-49601609D01*
X28486064Y-49351079D01*
X28486066Y-49179733D01*
X28486066Y-46292919D01*
X29709667Y-46292919D01*
X29709667Y-44338441D01*
X29873909Y-44338441D01*
X29873909Y-46292919D01*
X31089299Y-46292919D01*
X31089299Y-52091919D01*
X31041290Y-52139928D01*
X29873909Y-52139928D01*
X29873909Y-54094406D01*
G37*
%TO.C,D1*%
X92380000Y-51880000D02*
X92380000Y-56120000D01*
X93500000Y-51230000D02*
X93500000Y-51880000D01*
X94620000Y-52600000D02*
X92380000Y-52600000D01*
X94620000Y-52720000D02*
X92380000Y-52720000D01*
X92380000Y-56120000D02*
X94620000Y-56120000D01*
X93500000Y-56770000D02*
X93500000Y-56120000D01*
X94620000Y-52480000D02*
X92380000Y-52480000D01*
X94620000Y-56120000D02*
X94620000Y-51880000D01*
X94620000Y-51880000D02*
X92380000Y-51880000D01*
%TO.C,R6*%
X92130000Y-47020000D02*
X92460000Y-47020000D01*
X92130000Y-40480000D02*
X92130000Y-47020000D01*
X94540000Y-40480000D02*
X94870000Y-40480000D01*
X94870000Y-40480000D02*
X94870000Y-47020000D01*
X94870000Y-47020000D02*
X94540000Y-47020000D01*
X92460000Y-40480000D02*
X92130000Y-40480000D01*
%TO.C,U3*%
X54895000Y-56055000D02*
X72295000Y-56055000D01*
X72295000Y-56055000D02*
X72295000Y-27755000D01*
X72295000Y-27755000D02*
X54895000Y-27755000D01*
X54895000Y-27755000D02*
X54895000Y-56055000D01*
%TO.C,J2*%
X31940000Y-91660000D02*
X27610000Y-91660000D01*
X31940000Y-85680000D02*
X27610000Y-85680000D01*
X31940000Y-92880000D02*
X27610000Y-92880000D01*
X31940000Y-84460000D02*
X27610000Y-84460000D01*
X31940000Y-95260000D02*
X27610000Y-95260000D01*
X31940000Y-88060000D02*
X27610000Y-88060000D01*
X31940000Y-96480000D02*
X27610000Y-96480000D01*
X31940000Y-89280000D02*
X27610000Y-89280000D01*
%TO.C,R7*%
X98230000Y-91460000D02*
X98230000Y-91130000D01*
X98230000Y-91130000D02*
X104770000Y-91130000D01*
X104770000Y-91130000D02*
X104770000Y-91460000D01*
X104770000Y-93870000D02*
X104770000Y-93540000D01*
X98230000Y-93540000D02*
X98230000Y-93870000D01*
X98230000Y-93870000D02*
X104770000Y-93870000D01*
%TO.C,R3*%
X65730000Y-70370000D02*
X72270000Y-70370000D01*
X72270000Y-70370000D02*
X72270000Y-70040000D01*
X65730000Y-70040000D02*
X65730000Y-70370000D01*
X65730000Y-67630000D02*
X72270000Y-67630000D01*
X65730000Y-67960000D02*
X65730000Y-67630000D01*
X72270000Y-67630000D02*
X72270000Y-67960000D01*
%TO.C,C1*%
X57484000Y-66870000D02*
X57039000Y-66870000D01*
X57484000Y-60630000D02*
X57484000Y-66870000D01*
X57484000Y-60630000D02*
X57039000Y-60630000D01*
X55189000Y-66870000D02*
X54744000Y-66870000D01*
X55189000Y-60630000D02*
X54744000Y-60630000D01*
X54744000Y-60630000D02*
X54744000Y-66870000D01*
%TO.C,J1*%
X37590000Y-33915000D02*
X37590000Y-29585000D01*
X41190000Y-33915000D02*
X41190000Y-29585000D01*
X42410000Y-33915000D02*
X42410000Y-29585000D01*
X38810000Y-33915000D02*
X38810000Y-29585000D01*
%TO.C,R5*%
X83130000Y-57270000D02*
X83130000Y-50730000D01*
X83130000Y-50730000D02*
X83460000Y-50730000D01*
X83460000Y-57270000D02*
X83130000Y-57270000D01*
X85870000Y-50730000D02*
X85540000Y-50730000D01*
X85870000Y-57270000D02*
X85870000Y-50730000D01*
X85540000Y-57270000D02*
X85870000Y-57270000D01*
%TO.C,Q1*%
X99330000Y-104470000D02*
X103180000Y-104470000D01*
X103626400Y-101671193D02*
G75*
G03*
X101270000Y-100170000I-2356399J-1098804D01*
G01*
X101270000Y-100170000D02*
G75*
G03*
X98913600Y-101671193I2J-2600002D01*
G01*
X103180000Y-104470000D02*
G75*
G03*
X103572383Y-103882264I-1909979J1699985D01*
G01*
X98947369Y-103892045D02*
G75*
G03*
X99330000Y-104470000I2322647J1122056D01*
G01*
%TO.C,J6*%
X115830000Y-35060000D02*
X113170000Y-35060000D01*
X114500000Y-47880000D02*
X113170000Y-47880000D01*
X115830000Y-45280000D02*
X113170000Y-45280000D01*
X113170000Y-47880000D02*
X113170000Y-46550000D01*
X115830000Y-45280000D02*
X115830000Y-35060000D01*
X113170000Y-45280000D02*
X113170000Y-35060000D01*
%TO.C,D2*%
X83380000Y-45870000D02*
X85620000Y-45870000D01*
X84500000Y-46520000D02*
X84500000Y-45870000D01*
X84500000Y-40980000D02*
X84500000Y-41630000D01*
X85620000Y-41630000D02*
X83380000Y-41630000D01*
X85620000Y-45870000D02*
X85620000Y-41630000D01*
X83380000Y-45270000D02*
X85620000Y-45270000D01*
X83380000Y-45150000D02*
X85620000Y-45150000D01*
X83380000Y-45030000D02*
X85620000Y-45030000D01*
X83380000Y-41630000D02*
X83380000Y-45870000D01*
%TO.C,G\u002A\u002A\u002A*%
G36*
X111449627Y-103492829D02*
G01*
X111463792Y-103498680D01*
X111476021Y-103507955D01*
X111487906Y-103520200D01*
X111489443Y-103521914D01*
X111502962Y-103539692D01*
X111513100Y-103560553D01*
X111520206Y-103587251D01*
X111524633Y-103622539D01*
X111526732Y-103669170D01*
X111526853Y-103729897D01*
X111525432Y-103804133D01*
X111523734Y-103867493D01*
X111521216Y-103919620D01*
X111516507Y-103963215D01*
X111508236Y-104000980D01*
X111495032Y-104035618D01*
X111475524Y-104069829D01*
X111448341Y-104106317D01*
X111412113Y-104147782D01*
X111365468Y-104196928D01*
X111307036Y-104256455D01*
X111284203Y-104279577D01*
X111233062Y-104330917D01*
X111185158Y-104378150D01*
X111142540Y-104419319D01*
X111107261Y-104452471D01*
X111081369Y-104475651D01*
X111066917Y-104486904D01*
X111066427Y-104487173D01*
X111027591Y-104498683D01*
X110982605Y-104499432D01*
X110940944Y-104489731D01*
X110926730Y-104482622D01*
X110909452Y-104469033D01*
X110881450Y-104443695D01*
X110844976Y-104408918D01*
X110802281Y-104367009D01*
X110755616Y-104320276D01*
X110707231Y-104271029D01*
X110659378Y-104221574D01*
X110614307Y-104174222D01*
X110574271Y-104131280D01*
X110541518Y-104095057D01*
X110518301Y-104067860D01*
X110506927Y-104052109D01*
X110485405Y-103999776D01*
X110480428Y-103955890D01*
X110492414Y-103917866D01*
X110521780Y-103883120D01*
X110536173Y-103871308D01*
X110551773Y-103862256D01*
X110583311Y-103846347D01*
X110628801Y-103824502D01*
X110686257Y-103797642D01*
X110753695Y-103766690D01*
X110829128Y-103732565D01*
X110910571Y-103696190D01*
X110972464Y-103668839D01*
X111075662Y-103623529D01*
X111162602Y-103585712D01*
X111234875Y-103554937D01*
X111294072Y-103530751D01*
X111341785Y-103512702D01*
X111379606Y-103500338D01*
X111409126Y-103493205D01*
X111431936Y-103490853D01*
X111449627Y-103492829D01*
G37*
G36*
X111442500Y-101438116D02*
G01*
X111467311Y-101447205D01*
X111487820Y-101460393D01*
X111502669Y-101477597D01*
X111512719Y-101501922D01*
X111518827Y-101536473D01*
X111521852Y-101584358D01*
X111522653Y-101647371D01*
X111522410Y-101701685D01*
X111521291Y-101740638D01*
X111518719Y-101768405D01*
X111514113Y-101789163D01*
X111506893Y-101807087D01*
X111498230Y-101823280D01*
X111475869Y-101855642D01*
X111448927Y-101885387D01*
X111439615Y-101893538D01*
X111423565Y-101903132D01*
X111391599Y-101919495D01*
X111345751Y-101941683D01*
X111288057Y-101968746D01*
X111220548Y-101999739D01*
X111145261Y-102033713D01*
X111064228Y-102069722D01*
X111012945Y-102092239D01*
X110911942Y-102136298D01*
X110827173Y-102172928D01*
X110756997Y-102202595D01*
X110699775Y-102225763D01*
X110653869Y-102242900D01*
X110617639Y-102254470D01*
X110589445Y-102260939D01*
X110567648Y-102262773D01*
X110550610Y-102260437D01*
X110536690Y-102254396D01*
X110524249Y-102245118D01*
X110512861Y-102234281D01*
X110495185Y-102212128D01*
X110482985Y-102184706D01*
X110475689Y-102148756D01*
X110472724Y-102101018D01*
X110473518Y-102038233D01*
X110474425Y-102015490D01*
X110480389Y-101948090D01*
X110492597Y-101895633D01*
X110512694Y-101854071D01*
X110542324Y-101819359D01*
X110560384Y-101803966D01*
X110577592Y-101793596D01*
X110610096Y-101776955D01*
X110655651Y-101755024D01*
X110712007Y-101728780D01*
X110776918Y-101699202D01*
X110848135Y-101667270D01*
X110923412Y-101633961D01*
X111000501Y-101600254D01*
X111077154Y-101567129D01*
X111151124Y-101535563D01*
X111220163Y-101506535D01*
X111282023Y-101481025D01*
X111334458Y-101460010D01*
X111375219Y-101444470D01*
X111402059Y-101435382D01*
X111411441Y-101433384D01*
X111442500Y-101438116D01*
G37*
G36*
X111448988Y-102807438D02*
G01*
X111462221Y-102813184D01*
X111474232Y-102821968D01*
X111485087Y-102831803D01*
X111503953Y-102855977D01*
X111516805Y-102888921D01*
X111524170Y-102933415D01*
X111526572Y-102992235D01*
X111525514Y-103045307D01*
X111523840Y-103088049D01*
X111521317Y-103124648D01*
X111516538Y-103156267D01*
X111508093Y-103184069D01*
X111494575Y-103209214D01*
X111474577Y-103232866D01*
X111446691Y-103256185D01*
X111409508Y-103280334D01*
X111361621Y-103306475D01*
X111301622Y-103335769D01*
X111228104Y-103369380D01*
X111139657Y-103408468D01*
X111034875Y-103454196D01*
X111024757Y-103458606D01*
X110941093Y-103494909D01*
X110862254Y-103528793D01*
X110790187Y-103559446D01*
X110726838Y-103586054D01*
X110674156Y-103607803D01*
X110634085Y-103623881D01*
X110608573Y-103633474D01*
X110600380Y-103635900D01*
X110571701Y-103636769D01*
X110553391Y-103634716D01*
X110525858Y-103620074D01*
X110501104Y-103591278D01*
X110482974Y-103553682D01*
X110476696Y-103527957D01*
X110474225Y-103498475D01*
X110473144Y-103456373D01*
X110473561Y-103408524D01*
X110474446Y-103382711D01*
X110477230Y-103334246D01*
X110481273Y-103299770D01*
X110487758Y-103273730D01*
X110497868Y-103250576D01*
X110505535Y-103236835D01*
X110528496Y-103205171D01*
X110556072Y-103177146D01*
X110568251Y-103167887D01*
X110584679Y-103159086D01*
X110617010Y-103143463D01*
X110663208Y-103121943D01*
X110721238Y-103095449D01*
X110789067Y-103064908D01*
X110864660Y-103031242D01*
X110945980Y-102995377D01*
X110999827Y-102971811D01*
X111099078Y-102928568D01*
X111182103Y-102892692D01*
X111250569Y-102863703D01*
X111306143Y-102841118D01*
X111350493Y-102824458D01*
X111385285Y-102813241D01*
X111412187Y-102806986D01*
X111432865Y-102805212D01*
X111448988Y-102807438D01*
G37*
G36*
X111453467Y-102125983D02*
G01*
X111487963Y-102149018D01*
X111510028Y-102180150D01*
X111516517Y-102207086D01*
X111520703Y-102248182D01*
X111522661Y-102298295D01*
X111522461Y-102352285D01*
X111520178Y-102405010D01*
X111515884Y-102451330D01*
X111509652Y-102486103D01*
X111505524Y-102498230D01*
X111470075Y-102552076D01*
X111420627Y-102594310D01*
X111402170Y-102604859D01*
X111379139Y-102615930D01*
X111341812Y-102633055D01*
X111292513Y-102655223D01*
X111233564Y-102681427D01*
X111167290Y-102710658D01*
X111096012Y-102741907D01*
X111022054Y-102774166D01*
X110947738Y-102806425D01*
X110875389Y-102837676D01*
X110807327Y-102866910D01*
X110745878Y-102893118D01*
X110693363Y-102915292D01*
X110652106Y-102932423D01*
X110624429Y-102943502D01*
X110613350Y-102947400D01*
X110581218Y-102949276D01*
X110550765Y-102943765D01*
X110521550Y-102927850D01*
X110497799Y-102905363D01*
X110489627Y-102892647D01*
X110483960Y-102877906D01*
X110480350Y-102857490D01*
X110478347Y-102827746D01*
X110477502Y-102785026D01*
X110477357Y-102739286D01*
X110477661Y-102682855D01*
X110478874Y-102641988D01*
X110481468Y-102612714D01*
X110485911Y-102591064D01*
X110492675Y-102573068D01*
X110498387Y-102561730D01*
X110529457Y-102515984D01*
X110569561Y-102481304D01*
X110604346Y-102461430D01*
X110638114Y-102445259D01*
X110684496Y-102423996D01*
X110741249Y-102398596D01*
X110806129Y-102370010D01*
X110876894Y-102339192D01*
X110951301Y-102307094D01*
X111027108Y-102274670D01*
X111102072Y-102242873D01*
X111173950Y-102212655D01*
X111240500Y-102184969D01*
X111299478Y-102160768D01*
X111348642Y-102141005D01*
X111385749Y-102126633D01*
X111408557Y-102118606D01*
X111414439Y-102117230D01*
X111453467Y-102125983D01*
G37*
G36*
X111195963Y-99502826D02*
G01*
X111404879Y-99515889D01*
X111603096Y-99538178D01*
X111635000Y-99542835D01*
X111741512Y-99561202D01*
X111845884Y-99583480D01*
X111945120Y-99608784D01*
X112036225Y-99636225D01*
X112116203Y-99664917D01*
X112182059Y-99693973D01*
X112222363Y-99716753D01*
X112249950Y-99735960D01*
X112270035Y-99754442D01*
X112283800Y-99775686D01*
X112292428Y-99803178D01*
X112297098Y-99840403D01*
X112298994Y-99890849D01*
X112299307Y-99943754D01*
X112299035Y-100001160D01*
X112297930Y-100042828D01*
X112295555Y-100072553D01*
X112291477Y-100094132D01*
X112285259Y-100111359D01*
X112278617Y-100124268D01*
X112255162Y-100157169D01*
X112225656Y-100180003D01*
X112186634Y-100194187D01*
X112134627Y-100201138D01*
X112087364Y-100202461D01*
X112033264Y-100203844D01*
X111995108Y-100207869D01*
X111974592Y-100214354D01*
X111974148Y-100214673D01*
X111965325Y-100226239D01*
X111948487Y-100252870D01*
X111924833Y-100292400D01*
X111895564Y-100342664D01*
X111861880Y-100401498D01*
X111824980Y-100466737D01*
X111786063Y-100536216D01*
X111746330Y-100607770D01*
X111706981Y-100679234D01*
X111669215Y-100748443D01*
X111634232Y-100813234D01*
X111603232Y-100871439D01*
X111577414Y-100920896D01*
X111557979Y-100959438D01*
X111546125Y-100984902D01*
X111543542Y-100991649D01*
X111532958Y-101029626D01*
X111524321Y-101068528D01*
X111522506Y-101079022D01*
X111504198Y-101134275D01*
X111467531Y-101184230D01*
X111439615Y-101209177D01*
X111421882Y-101219875D01*
X111388661Y-101236889D01*
X111342263Y-101259215D01*
X111285003Y-101285847D01*
X111219190Y-101315781D01*
X111147139Y-101348011D01*
X111071161Y-101381532D01*
X110993569Y-101415339D01*
X110916675Y-101448426D01*
X110842791Y-101479790D01*
X110774229Y-101508424D01*
X110713302Y-101533324D01*
X110662323Y-101553484D01*
X110623602Y-101567899D01*
X110599454Y-101575565D01*
X110594577Y-101576499D01*
X110563191Y-101575840D01*
X110536694Y-101569193D01*
X110533435Y-101567531D01*
X110517247Y-101557416D01*
X110504486Y-101546458D01*
X110494682Y-101532287D01*
X110487361Y-101512530D01*
X110482053Y-101484818D01*
X110478285Y-101446780D01*
X110475585Y-101396046D01*
X110473482Y-101330243D01*
X110471740Y-101257538D01*
X110469218Y-101165544D01*
X110466190Y-101092243D01*
X110462601Y-101036798D01*
X110458395Y-100998369D01*
X110453517Y-100976116D01*
X110453200Y-100975274D01*
X110443089Y-100953191D01*
X110424920Y-100917459D01*
X110399959Y-100870314D01*
X110369469Y-100813994D01*
X110334715Y-100750734D01*
X110296960Y-100682773D01*
X110257469Y-100612346D01*
X110217504Y-100541691D01*
X110178331Y-100473044D01*
X110141214Y-100408643D01*
X110107415Y-100350724D01*
X110078200Y-100301524D01*
X110054831Y-100263279D01*
X110038574Y-100238228D01*
X110031688Y-100229327D01*
X110017243Y-100216822D01*
X110002827Y-100208949D01*
X109983589Y-100204642D01*
X109954680Y-100202835D01*
X109911250Y-100202461D01*
X109909464Y-100202461D01*
X109846252Y-100199616D01*
X109798418Y-100190124D01*
X109762511Y-100172549D01*
X109735080Y-100145458D01*
X109721382Y-100124268D01*
X109713186Y-100107797D01*
X109707470Y-100089948D01*
X109703799Y-100066923D01*
X109701737Y-100034928D01*
X109700849Y-99990165D01*
X109700692Y-99943754D01*
X109701207Y-99880054D01*
X109703541Y-99832396D01*
X109708874Y-99797295D01*
X109718390Y-99771262D01*
X109733268Y-99750814D01*
X109754692Y-99732462D01*
X109777636Y-99716753D01*
X109830121Y-99688041D01*
X109899110Y-99658987D01*
X109981609Y-99630479D01*
X110074621Y-99603403D01*
X110175151Y-99578647D01*
X110280205Y-99557096D01*
X110365000Y-99542835D01*
X110560867Y-99518994D01*
X110768373Y-99504379D01*
X110981933Y-99498991D01*
X111195963Y-99502826D01*
G37*
G36*
X27449627Y-103492829D02*
G01*
X27463792Y-103498680D01*
X27476021Y-103507955D01*
X27487906Y-103520200D01*
X27489443Y-103521914D01*
X27502962Y-103539692D01*
X27513100Y-103560553D01*
X27520206Y-103587251D01*
X27524633Y-103622539D01*
X27526732Y-103669170D01*
X27526853Y-103729897D01*
X27525432Y-103804133D01*
X27523734Y-103867493D01*
X27521216Y-103919620D01*
X27516507Y-103963215D01*
X27508236Y-104000980D01*
X27495032Y-104035618D01*
X27475524Y-104069829D01*
X27448341Y-104106317D01*
X27412113Y-104147782D01*
X27365468Y-104196928D01*
X27307036Y-104256455D01*
X27284203Y-104279577D01*
X27233062Y-104330917D01*
X27185158Y-104378150D01*
X27142540Y-104419319D01*
X27107261Y-104452471D01*
X27081369Y-104475651D01*
X27066917Y-104486904D01*
X27066427Y-104487173D01*
X27027591Y-104498683D01*
X26982605Y-104499432D01*
X26940944Y-104489731D01*
X26926730Y-104482622D01*
X26909452Y-104469033D01*
X26881450Y-104443695D01*
X26844976Y-104408918D01*
X26802281Y-104367009D01*
X26755616Y-104320276D01*
X26707231Y-104271029D01*
X26659378Y-104221574D01*
X26614307Y-104174222D01*
X26574271Y-104131280D01*
X26541518Y-104095057D01*
X26518301Y-104067860D01*
X26506927Y-104052109D01*
X26485405Y-103999776D01*
X26480428Y-103955890D01*
X26492414Y-103917866D01*
X26521780Y-103883120D01*
X26536173Y-103871308D01*
X26551773Y-103862256D01*
X26583311Y-103846347D01*
X26628801Y-103824502D01*
X26686257Y-103797642D01*
X26753695Y-103766690D01*
X26829128Y-103732565D01*
X26910571Y-103696190D01*
X26972464Y-103668839D01*
X27075662Y-103623529D01*
X27162602Y-103585712D01*
X27234875Y-103554937D01*
X27294072Y-103530751D01*
X27341785Y-103512702D01*
X27379606Y-103500338D01*
X27409126Y-103493205D01*
X27431936Y-103490853D01*
X27449627Y-103492829D01*
G37*
G36*
X27442500Y-101438116D02*
G01*
X27467311Y-101447205D01*
X27487820Y-101460393D01*
X27502669Y-101477597D01*
X27512719Y-101501922D01*
X27518827Y-101536473D01*
X27521852Y-101584358D01*
X27522653Y-101647371D01*
X27522410Y-101701685D01*
X27521291Y-101740638D01*
X27518719Y-101768405D01*
X27514113Y-101789163D01*
X27506893Y-101807087D01*
X27498230Y-101823280D01*
X27475869Y-101855642D01*
X27448927Y-101885387D01*
X27439615Y-101893538D01*
X27423565Y-101903132D01*
X27391599Y-101919495D01*
X27345751Y-101941683D01*
X27288057Y-101968746D01*
X27220548Y-101999739D01*
X27145261Y-102033713D01*
X27064228Y-102069722D01*
X27012945Y-102092239D01*
X26911942Y-102136298D01*
X26827173Y-102172928D01*
X26756997Y-102202595D01*
X26699775Y-102225763D01*
X26653869Y-102242900D01*
X26617639Y-102254470D01*
X26589445Y-102260939D01*
X26567648Y-102262773D01*
X26550610Y-102260437D01*
X26536690Y-102254396D01*
X26524249Y-102245118D01*
X26512861Y-102234281D01*
X26495185Y-102212128D01*
X26482985Y-102184706D01*
X26475689Y-102148756D01*
X26472724Y-102101018D01*
X26473518Y-102038233D01*
X26474425Y-102015490D01*
X26480389Y-101948090D01*
X26492597Y-101895633D01*
X26512694Y-101854071D01*
X26542324Y-101819359D01*
X26560384Y-101803966D01*
X26577592Y-101793596D01*
X26610096Y-101776955D01*
X26655651Y-101755024D01*
X26712007Y-101728780D01*
X26776918Y-101699202D01*
X26848135Y-101667270D01*
X26923412Y-101633961D01*
X27000501Y-101600254D01*
X27077154Y-101567129D01*
X27151124Y-101535563D01*
X27220163Y-101506535D01*
X27282023Y-101481025D01*
X27334458Y-101460010D01*
X27375219Y-101444470D01*
X27402059Y-101435382D01*
X27411441Y-101433384D01*
X27442500Y-101438116D01*
G37*
G36*
X27448988Y-102807438D02*
G01*
X27462221Y-102813184D01*
X27474232Y-102821968D01*
X27485087Y-102831803D01*
X27503953Y-102855977D01*
X27516805Y-102888921D01*
X27524170Y-102933415D01*
X27526572Y-102992235D01*
X27525514Y-103045307D01*
X27523840Y-103088049D01*
X27521317Y-103124648D01*
X27516538Y-103156267D01*
X27508093Y-103184069D01*
X27494575Y-103209214D01*
X27474577Y-103232866D01*
X27446691Y-103256185D01*
X27409508Y-103280334D01*
X27361621Y-103306475D01*
X27301622Y-103335769D01*
X27228104Y-103369380D01*
X27139657Y-103408468D01*
X27034875Y-103454196D01*
X27024757Y-103458606D01*
X26941093Y-103494909D01*
X26862254Y-103528793D01*
X26790187Y-103559446D01*
X26726838Y-103586054D01*
X26674156Y-103607803D01*
X26634085Y-103623881D01*
X26608573Y-103633474D01*
X26600380Y-103635900D01*
X26571701Y-103636769D01*
X26553391Y-103634716D01*
X26525858Y-103620074D01*
X26501104Y-103591278D01*
X26482974Y-103553682D01*
X26476696Y-103527957D01*
X26474225Y-103498475D01*
X26473144Y-103456373D01*
X26473561Y-103408524D01*
X26474446Y-103382711D01*
X26477230Y-103334246D01*
X26481273Y-103299770D01*
X26487758Y-103273730D01*
X26497868Y-103250576D01*
X26505535Y-103236835D01*
X26528496Y-103205171D01*
X26556072Y-103177146D01*
X26568251Y-103167887D01*
X26584679Y-103159086D01*
X26617010Y-103143463D01*
X26663208Y-103121943D01*
X26721238Y-103095449D01*
X26789067Y-103064908D01*
X26864660Y-103031242D01*
X26945980Y-102995377D01*
X26999827Y-102971811D01*
X27099078Y-102928568D01*
X27182103Y-102892692D01*
X27250569Y-102863703D01*
X27306143Y-102841118D01*
X27350493Y-102824458D01*
X27385285Y-102813241D01*
X27412187Y-102806986D01*
X27432865Y-102805212D01*
X27448988Y-102807438D01*
G37*
G36*
X27453467Y-102125983D02*
G01*
X27487963Y-102149018D01*
X27510028Y-102180150D01*
X27516517Y-102207086D01*
X27520703Y-102248182D01*
X27522661Y-102298295D01*
X27522461Y-102352285D01*
X27520178Y-102405010D01*
X27515884Y-102451330D01*
X27509652Y-102486103D01*
X27505524Y-102498230D01*
X27470075Y-102552076D01*
X27420627Y-102594310D01*
X27402170Y-102604859D01*
X27379139Y-102615930D01*
X27341812Y-102633055D01*
X27292513Y-102655223D01*
X27233564Y-102681427D01*
X27167290Y-102710658D01*
X27096012Y-102741907D01*
X27022054Y-102774166D01*
X26947738Y-102806425D01*
X26875389Y-102837676D01*
X26807327Y-102866910D01*
X26745878Y-102893118D01*
X26693363Y-102915292D01*
X26652106Y-102932423D01*
X26624429Y-102943502D01*
X26613350Y-102947400D01*
X26581218Y-102949276D01*
X26550765Y-102943765D01*
X26521550Y-102927850D01*
X26497799Y-102905363D01*
X26489627Y-102892647D01*
X26483960Y-102877906D01*
X26480350Y-102857490D01*
X26478347Y-102827746D01*
X26477502Y-102785026D01*
X26477357Y-102739286D01*
X26477661Y-102682855D01*
X26478874Y-102641988D01*
X26481468Y-102612714D01*
X26485911Y-102591064D01*
X26492675Y-102573068D01*
X26498387Y-102561730D01*
X26529457Y-102515984D01*
X26569561Y-102481304D01*
X26604346Y-102461430D01*
X26638114Y-102445259D01*
X26684496Y-102423996D01*
X26741249Y-102398596D01*
X26806129Y-102370010D01*
X26876894Y-102339192D01*
X26951301Y-102307094D01*
X27027108Y-102274670D01*
X27102072Y-102242873D01*
X27173950Y-102212655D01*
X27240500Y-102184969D01*
X27299478Y-102160768D01*
X27348642Y-102141005D01*
X27385749Y-102126633D01*
X27408557Y-102118606D01*
X27414439Y-102117230D01*
X27453467Y-102125983D01*
G37*
G36*
X27195963Y-99502826D02*
G01*
X27404879Y-99515889D01*
X27603096Y-99538178D01*
X27635000Y-99542835D01*
X27741512Y-99561202D01*
X27845884Y-99583480D01*
X27945120Y-99608784D01*
X28036225Y-99636225D01*
X28116203Y-99664917D01*
X28182059Y-99693973D01*
X28222363Y-99716753D01*
X28249950Y-99735960D01*
X28270035Y-99754442D01*
X28283800Y-99775686D01*
X28292428Y-99803178D01*
X28297098Y-99840403D01*
X28298994Y-99890849D01*
X28299307Y-99943754D01*
X28299035Y-100001160D01*
X28297930Y-100042828D01*
X28295555Y-100072553D01*
X28291477Y-100094132D01*
X28285259Y-100111359D01*
X28278617Y-100124268D01*
X28255162Y-100157169D01*
X28225656Y-100180003D01*
X28186634Y-100194187D01*
X28134627Y-100201138D01*
X28087364Y-100202461D01*
X28033264Y-100203844D01*
X27995108Y-100207869D01*
X27974592Y-100214354D01*
X27974148Y-100214673D01*
X27965325Y-100226239D01*
X27948487Y-100252870D01*
X27924833Y-100292400D01*
X27895564Y-100342664D01*
X27861880Y-100401498D01*
X27824980Y-100466737D01*
X27786063Y-100536216D01*
X27746330Y-100607770D01*
X27706981Y-100679234D01*
X27669215Y-100748443D01*
X27634232Y-100813234D01*
X27603232Y-100871439D01*
X27577414Y-100920896D01*
X27557979Y-100959438D01*
X27546125Y-100984902D01*
X27543542Y-100991649D01*
X27532958Y-101029626D01*
X27524321Y-101068528D01*
X27522506Y-101079022D01*
X27504198Y-101134275D01*
X27467531Y-101184230D01*
X27439615Y-101209177D01*
X27421882Y-101219875D01*
X27388661Y-101236889D01*
X27342263Y-101259215D01*
X27285003Y-101285847D01*
X27219190Y-101315781D01*
X27147139Y-101348011D01*
X27071161Y-101381532D01*
X26993569Y-101415339D01*
X26916675Y-101448426D01*
X26842791Y-101479790D01*
X26774229Y-101508424D01*
X26713302Y-101533324D01*
X26662323Y-101553484D01*
X26623602Y-101567899D01*
X26599454Y-101575565D01*
X26594577Y-101576499D01*
X26563191Y-101575840D01*
X26536694Y-101569193D01*
X26533435Y-101567531D01*
X26517247Y-101557416D01*
X26504486Y-101546458D01*
X26494682Y-101532287D01*
X26487361Y-101512530D01*
X26482053Y-101484818D01*
X26478285Y-101446780D01*
X26475585Y-101396046D01*
X26473482Y-101330243D01*
X26471740Y-101257538D01*
X26469218Y-101165544D01*
X26466190Y-101092243D01*
X26462601Y-101036798D01*
X26458395Y-100998369D01*
X26453517Y-100976116D01*
X26453200Y-100975274D01*
X26443089Y-100953191D01*
X26424920Y-100917459D01*
X26399959Y-100870314D01*
X26369469Y-100813994D01*
X26334715Y-100750734D01*
X26296960Y-100682773D01*
X26257469Y-100612346D01*
X26217504Y-100541691D01*
X26178331Y-100473044D01*
X26141214Y-100408643D01*
X26107415Y-100350724D01*
X26078200Y-100301524D01*
X26054831Y-100263279D01*
X26038574Y-100238228D01*
X26031688Y-100229327D01*
X26017243Y-100216822D01*
X26002827Y-100208949D01*
X25983589Y-100204642D01*
X25954680Y-100202835D01*
X25911250Y-100202461D01*
X25909464Y-100202461D01*
X25846252Y-100199616D01*
X25798418Y-100190124D01*
X25762511Y-100172549D01*
X25735080Y-100145458D01*
X25721382Y-100124268D01*
X25713186Y-100107797D01*
X25707470Y-100089948D01*
X25703799Y-100066923D01*
X25701737Y-100034928D01*
X25700849Y-99990165D01*
X25700692Y-99943754D01*
X25701207Y-99880054D01*
X25703541Y-99832396D01*
X25708874Y-99797295D01*
X25718390Y-99771262D01*
X25733268Y-99750814D01*
X25754692Y-99732462D01*
X25777636Y-99716753D01*
X25830121Y-99688041D01*
X25899110Y-99658987D01*
X25981609Y-99630479D01*
X26074621Y-99603403D01*
X26175151Y-99578647D01*
X26280205Y-99557096D01*
X26365000Y-99542835D01*
X26560867Y-99518994D01*
X26768373Y-99504379D01*
X26981933Y-99498991D01*
X27195963Y-99502826D01*
G37*
%TO.C,J7*%
X29190000Y-60085000D02*
X29190000Y-64415000D01*
X25590000Y-60085000D02*
X25590000Y-64415000D01*
X26810000Y-60085000D02*
X26810000Y-64415000D01*
X30410000Y-60085000D02*
X30410000Y-64415000D01*
%TO.C,R2*%
X108460000Y-83370000D02*
X101920000Y-83370000D01*
X108460000Y-83040000D02*
X108460000Y-83370000D01*
X101920000Y-83370000D02*
X101920000Y-83040000D01*
X101920000Y-80630000D02*
X101920000Y-80960000D01*
X108460000Y-80960000D02*
X108460000Y-80630000D01*
X108460000Y-80630000D02*
X101920000Y-80630000D01*
%TO.C,C2*%
X68870000Y-60922651D02*
G75*
G03*
X68870000Y-60922651I-4120000J0D01*
G01*
X66784000Y-64483651D02*
X62716000Y-64483651D01*
X67906000Y-63523651D02*
X61594000Y-63523651D01*
X68697000Y-61963651D02*
X65790000Y-61963651D01*
X68194000Y-63123651D02*
X65790000Y-63123651D01*
X63710000Y-61202651D02*
X60679000Y-61202651D01*
X66481000Y-64643651D02*
X63019000Y-64643651D01*
X67769000Y-63683651D02*
X61731000Y-63683651D01*
X68830000Y-61002651D02*
X60670000Y-61002651D01*
X68168000Y-63163651D02*
X65790000Y-63163651D01*
X63710000Y-62043651D02*
X60825000Y-62043651D01*
X63710000Y-62763651D02*
X61103000Y-62763651D01*
X63710000Y-62083651D02*
X60836000Y-62083651D01*
X68243000Y-63043651D02*
X65790000Y-63043651D01*
X63710000Y-62683651D02*
X61064000Y-62683651D01*
X68830000Y-60962651D02*
X60670000Y-60962651D01*
X68377000Y-62803651D02*
X65790000Y-62803651D01*
X67255000Y-64163651D02*
X62245000Y-64163651D01*
X67695000Y-63763651D02*
X61805000Y-63763651D01*
X66978000Y-64363651D02*
X62522000Y-64363651D01*
X63710000Y-62483651D02*
X60976000Y-62483651D01*
X66852000Y-64443651D02*
X62648000Y-64443651D01*
X63710000Y-62803651D02*
X61123000Y-62803651D01*
X68115000Y-63243651D02*
X61385000Y-63243651D01*
X68826000Y-61122651D02*
X60674000Y-61122651D01*
X63710000Y-62403651D02*
X60945000Y-62403651D01*
X63710000Y-62203651D02*
X60873000Y-62203651D01*
X67970000Y-63443651D02*
X61530000Y-63443651D01*
X63710000Y-63203651D02*
X61358000Y-63203651D01*
X66640000Y-64563651D02*
X62860000Y-64563651D01*
X63710000Y-62363651D02*
X60929000Y-62363651D01*
X63710000Y-61522651D02*
X60713000Y-61522651D01*
X63710000Y-63043651D02*
X61257000Y-63043651D01*
X67401000Y-64043651D02*
X62099000Y-64043651D01*
X66916000Y-64403651D02*
X62584000Y-64403651D01*
X68735000Y-61803651D02*
X65790000Y-61803651D01*
X68707000Y-61923651D02*
X65790000Y-61923651D01*
X63710000Y-62283651D02*
X60900000Y-62283651D01*
X68744000Y-61763651D02*
X65790000Y-61763651D01*
X63710000Y-63083651D02*
X61281000Y-63083651D01*
X67617000Y-63843651D02*
X61883000Y-63843651D01*
X66395000Y-64683651D02*
X63105000Y-64683651D01*
X63710000Y-62643651D02*
X61046000Y-62643651D01*
X67150000Y-64243651D02*
X62350000Y-64243651D01*
X67354000Y-64083651D02*
X62146000Y-64083651D01*
X68830000Y-60922651D02*
X60670000Y-60922651D01*
X63710000Y-62883651D02*
X61166000Y-62883651D01*
X68815000Y-61282651D02*
X65790000Y-61282651D01*
X67805000Y-63643651D02*
X61695000Y-63643651D01*
X63710000Y-61963651D02*
X60803000Y-61963651D01*
X68811000Y-61322651D02*
X65790000Y-61322651D01*
X66096000Y-64803651D02*
X63404000Y-64803651D01*
X67874000Y-63563651D02*
X61626000Y-63563651D01*
X63710000Y-62443651D02*
X60960000Y-62443651D01*
X68613000Y-62243651D02*
X65790000Y-62243651D01*
X67037000Y-64323651D02*
X62463000Y-64323651D01*
X68000000Y-63403651D02*
X61500000Y-63403651D01*
X63710000Y-61923651D02*
X60793000Y-61923651D01*
X63710000Y-61643651D02*
X60733000Y-61643651D01*
X63710000Y-61322651D02*
X60689000Y-61322651D01*
X68752000Y-61723651D02*
X65790000Y-61723651D01*
X63710000Y-62843651D02*
X61144000Y-62843651D01*
X68219000Y-63083651D02*
X65790000Y-63083651D01*
X63710000Y-61803651D02*
X60765000Y-61803651D01*
X67065000Y-56512953D02*
X67065000Y-57312953D01*
X68760000Y-61683651D02*
X65790000Y-61683651D01*
X66302000Y-64723651D02*
X63198000Y-64723651D01*
X63710000Y-61402651D02*
X60698000Y-61402651D01*
X63710000Y-61683651D02*
X60740000Y-61683651D01*
X68827000Y-61082651D02*
X60673000Y-61082651D01*
X67095000Y-64283651D02*
X62405000Y-64283651D01*
X63710000Y-61883651D02*
X60783000Y-61883651D01*
X67534000Y-63923651D02*
X61966000Y-63923651D01*
X67576000Y-63883651D02*
X61924000Y-63883651D01*
X68600000Y-62283651D02*
X65790000Y-62283651D01*
X68334000Y-62883651D02*
X65790000Y-62883651D01*
X63710000Y-62923651D02*
X61188000Y-62923651D01*
X63710000Y-61723651D02*
X60748000Y-61723651D01*
X63710000Y-62963651D02*
X61210000Y-62963651D01*
X68585000Y-62323651D02*
X65790000Y-62323651D01*
X63710000Y-62723651D02*
X61084000Y-62723651D01*
X68088000Y-63283651D02*
X61412000Y-63283651D01*
X68555000Y-62403651D02*
X65790000Y-62403651D01*
X68540000Y-62443651D02*
X65790000Y-62443651D01*
X63710000Y-61602651D02*
X60726000Y-61602651D01*
X68818000Y-61242651D02*
X65790000Y-61242651D01*
X68490000Y-62563651D02*
X65790000Y-62563651D01*
X68824000Y-61162651D02*
X65790000Y-61162651D01*
X63710000Y-61562651D02*
X60720000Y-61562651D01*
X63710000Y-63163651D02*
X61332000Y-63163651D01*
X68059000Y-63323651D02*
X61441000Y-63323651D01*
X68290000Y-62963651D02*
X65790000Y-62963651D01*
X63710000Y-62523651D02*
X60993000Y-62523651D01*
X66714000Y-64523651D02*
X62786000Y-64523651D01*
X67447000Y-64003651D02*
X62053000Y-64003651D01*
X66203000Y-64763651D02*
X63297000Y-64763651D01*
X68821000Y-61202651D02*
X65790000Y-61202651D01*
X68829000Y-61042651D02*
X60671000Y-61042651D01*
X65518000Y-64963651D02*
X63982000Y-64963651D01*
X68436000Y-62683651D02*
X65790000Y-62683651D01*
X68356000Y-62843651D02*
X65790000Y-62843651D01*
X68652000Y-62123651D02*
X65790000Y-62123651D01*
X67306000Y-64123651D02*
X62194000Y-64123651D01*
X68454000Y-62643651D02*
X65790000Y-62643651D01*
X68774000Y-61602651D02*
X65790000Y-61602651D01*
X68142000Y-63203651D02*
X65790000Y-63203651D01*
X65848000Y-64883651D02*
X63652000Y-64883651D01*
X68627000Y-62203651D02*
X65790000Y-62203651D01*
X63710000Y-62323651D02*
X60915000Y-62323651D01*
X67657000Y-63803651D02*
X61843000Y-63803651D01*
X68792000Y-61482651D02*
X65790000Y-61482651D01*
X63710000Y-61442651D02*
X60702000Y-61442651D01*
X63710000Y-62163651D02*
X60861000Y-62163651D01*
X63710000Y-61843651D02*
X60774000Y-61843651D01*
X68798000Y-61442651D02*
X65790000Y-61442651D01*
X63710000Y-62123651D02*
X60848000Y-62123651D01*
X68686000Y-62003651D02*
X65790000Y-62003651D01*
X63710000Y-63123651D02*
X61306000Y-63123651D01*
X68664000Y-62083651D02*
X65790000Y-62083651D01*
X65283000Y-65003651D02*
X64217000Y-65003651D01*
X68312000Y-62923651D02*
X65790000Y-62923651D01*
X63710000Y-61242651D02*
X60682000Y-61242651D01*
X67204000Y-64203651D02*
X62296000Y-64203651D01*
X67733000Y-63723651D02*
X61767000Y-63723651D01*
X68507000Y-62523651D02*
X65790000Y-62523651D01*
X63710000Y-63003651D02*
X61233000Y-63003651D01*
X63710000Y-62563651D02*
X61010000Y-62563651D01*
X68767000Y-61643651D02*
X65790000Y-61643651D01*
X67491000Y-63963651D02*
X62009000Y-63963651D01*
X68267000Y-63003651D02*
X65790000Y-63003651D01*
X68639000Y-62163651D02*
X65790000Y-62163651D01*
X68571000Y-62363651D02*
X65790000Y-62363651D01*
X63710000Y-61282651D02*
X60685000Y-61282651D01*
X63710000Y-62243651D02*
X60887000Y-62243651D01*
X67840000Y-63603651D02*
X61660000Y-63603651D01*
X67939000Y-63483651D02*
X61561000Y-63483651D01*
X65698000Y-64923651D02*
X63802000Y-64923651D01*
X68524000Y-62483651D02*
X65790000Y-62483651D01*
X68802000Y-61402651D02*
X65790000Y-61402651D01*
X68717000Y-61883651D02*
X65790000Y-61883651D01*
X68726000Y-61843651D02*
X65790000Y-61843651D01*
X68472000Y-62603651D02*
X65790000Y-62603651D01*
X68807000Y-61362651D02*
X65790000Y-61362651D01*
X68787000Y-61522651D02*
X65790000Y-61522651D01*
X63710000Y-62003651D02*
X60814000Y-62003651D01*
X68030000Y-63363651D02*
X61470000Y-63363651D01*
X65979000Y-64843651D02*
X63521000Y-64843651D01*
X68675000Y-62043651D02*
X65790000Y-62043651D01*
X68397000Y-62763651D02*
X65790000Y-62763651D01*
X63710000Y-61482651D02*
X60708000Y-61482651D01*
X63710000Y-61362651D02*
X60693000Y-61362651D01*
X66563000Y-64603651D02*
X62937000Y-64603651D01*
X63710000Y-61162651D02*
X60676000Y-61162651D01*
X67465000Y-56912953D02*
X66665000Y-56912953D01*
X63710000Y-61763651D02*
X60756000Y-61763651D01*
X68780000Y-61562651D02*
X65790000Y-61562651D01*
X68416000Y-62723651D02*
X65790000Y-62723651D01*
X63710000Y-62603651D02*
X61028000Y-62603651D01*
%TO.C,J8*%
X114500000Y-62830000D02*
X113170000Y-62830000D01*
X115830000Y-52550000D02*
X113170000Y-52550000D01*
X115830000Y-60230000D02*
X115830000Y-52550000D01*
X113170000Y-60230000D02*
X113170000Y-52550000D01*
X115830000Y-60230000D02*
X113170000Y-60230000D01*
X113170000Y-62830000D02*
X113170000Y-61500000D01*
%TO.C,G\u002A\u002A\u002A*%
G36*
X26449627Y-31492829D02*
G01*
X26463792Y-31498680D01*
X26476021Y-31507955D01*
X26487906Y-31520200D01*
X26489443Y-31521914D01*
X26502962Y-31539692D01*
X26513100Y-31560553D01*
X26520206Y-31587251D01*
X26524633Y-31622539D01*
X26526732Y-31669170D01*
X26526853Y-31729897D01*
X26525432Y-31804133D01*
X26523734Y-31867493D01*
X26521216Y-31919620D01*
X26516507Y-31963215D01*
X26508236Y-32000980D01*
X26495032Y-32035618D01*
X26475524Y-32069829D01*
X26448341Y-32106317D01*
X26412113Y-32147782D01*
X26365468Y-32196928D01*
X26307036Y-32256455D01*
X26284203Y-32279577D01*
X26233062Y-32330917D01*
X26185158Y-32378150D01*
X26142540Y-32419319D01*
X26107261Y-32452471D01*
X26081369Y-32475651D01*
X26066917Y-32486904D01*
X26066427Y-32487173D01*
X26027591Y-32498683D01*
X25982605Y-32499432D01*
X25940944Y-32489731D01*
X25926730Y-32482622D01*
X25909452Y-32469033D01*
X25881450Y-32443695D01*
X25844976Y-32408918D01*
X25802281Y-32367009D01*
X25755616Y-32320276D01*
X25707231Y-32271029D01*
X25659378Y-32221574D01*
X25614307Y-32174222D01*
X25574271Y-32131280D01*
X25541518Y-32095057D01*
X25518301Y-32067860D01*
X25506927Y-32052109D01*
X25485405Y-31999776D01*
X25480428Y-31955890D01*
X25492414Y-31917866D01*
X25521780Y-31883120D01*
X25536173Y-31871308D01*
X25551773Y-31862256D01*
X25583311Y-31846347D01*
X25628801Y-31824502D01*
X25686257Y-31797642D01*
X25753695Y-31766690D01*
X25829128Y-31732565D01*
X25910571Y-31696190D01*
X25972464Y-31668839D01*
X26075662Y-31623529D01*
X26162602Y-31585712D01*
X26234875Y-31554937D01*
X26294072Y-31530751D01*
X26341785Y-31512702D01*
X26379606Y-31500338D01*
X26409126Y-31493205D01*
X26431936Y-31490853D01*
X26449627Y-31492829D01*
G37*
G36*
X26442500Y-29438116D02*
G01*
X26467311Y-29447205D01*
X26487820Y-29460393D01*
X26502669Y-29477597D01*
X26512719Y-29501922D01*
X26518827Y-29536473D01*
X26521852Y-29584358D01*
X26522653Y-29647371D01*
X26522410Y-29701685D01*
X26521291Y-29740638D01*
X26518719Y-29768405D01*
X26514113Y-29789163D01*
X26506893Y-29807087D01*
X26498230Y-29823280D01*
X26475869Y-29855642D01*
X26448927Y-29885387D01*
X26439615Y-29893538D01*
X26423565Y-29903132D01*
X26391599Y-29919495D01*
X26345751Y-29941683D01*
X26288057Y-29968746D01*
X26220548Y-29999739D01*
X26145261Y-30033713D01*
X26064228Y-30069722D01*
X26012945Y-30092239D01*
X25911942Y-30136298D01*
X25827173Y-30172928D01*
X25756997Y-30202595D01*
X25699775Y-30225763D01*
X25653869Y-30242900D01*
X25617639Y-30254470D01*
X25589445Y-30260939D01*
X25567648Y-30262773D01*
X25550610Y-30260437D01*
X25536690Y-30254396D01*
X25524249Y-30245118D01*
X25512861Y-30234281D01*
X25495185Y-30212128D01*
X25482985Y-30184706D01*
X25475689Y-30148756D01*
X25472724Y-30101018D01*
X25473518Y-30038233D01*
X25474425Y-30015490D01*
X25480389Y-29948090D01*
X25492597Y-29895633D01*
X25512694Y-29854071D01*
X25542324Y-29819359D01*
X25560384Y-29803966D01*
X25577592Y-29793596D01*
X25610096Y-29776955D01*
X25655651Y-29755024D01*
X25712007Y-29728780D01*
X25776918Y-29699202D01*
X25848135Y-29667270D01*
X25923412Y-29633961D01*
X26000501Y-29600254D01*
X26077154Y-29567129D01*
X26151124Y-29535563D01*
X26220163Y-29506535D01*
X26282023Y-29481025D01*
X26334458Y-29460010D01*
X26375219Y-29444470D01*
X26402059Y-29435382D01*
X26411441Y-29433384D01*
X26442500Y-29438116D01*
G37*
G36*
X26448988Y-30807438D02*
G01*
X26462221Y-30813184D01*
X26474232Y-30821968D01*
X26485087Y-30831803D01*
X26503953Y-30855977D01*
X26516805Y-30888921D01*
X26524170Y-30933415D01*
X26526572Y-30992235D01*
X26525514Y-31045307D01*
X26523840Y-31088049D01*
X26521317Y-31124648D01*
X26516538Y-31156267D01*
X26508093Y-31184069D01*
X26494575Y-31209214D01*
X26474577Y-31232866D01*
X26446691Y-31256185D01*
X26409508Y-31280334D01*
X26361621Y-31306475D01*
X26301622Y-31335769D01*
X26228104Y-31369380D01*
X26139657Y-31408468D01*
X26034875Y-31454196D01*
X26024757Y-31458606D01*
X25941093Y-31494909D01*
X25862254Y-31528793D01*
X25790187Y-31559446D01*
X25726838Y-31586054D01*
X25674156Y-31607803D01*
X25634085Y-31623881D01*
X25608573Y-31633474D01*
X25600380Y-31635900D01*
X25571701Y-31636769D01*
X25553391Y-31634716D01*
X25525858Y-31620074D01*
X25501104Y-31591278D01*
X25482974Y-31553682D01*
X25476696Y-31527957D01*
X25474225Y-31498475D01*
X25473144Y-31456373D01*
X25473561Y-31408524D01*
X25474446Y-31382711D01*
X25477230Y-31334246D01*
X25481273Y-31299770D01*
X25487758Y-31273730D01*
X25497868Y-31250576D01*
X25505535Y-31236835D01*
X25528496Y-31205171D01*
X25556072Y-31177146D01*
X25568251Y-31167887D01*
X25584679Y-31159086D01*
X25617010Y-31143463D01*
X25663208Y-31121943D01*
X25721238Y-31095449D01*
X25789067Y-31064908D01*
X25864660Y-31031242D01*
X25945980Y-30995377D01*
X25999827Y-30971811D01*
X26099078Y-30928568D01*
X26182103Y-30892692D01*
X26250569Y-30863703D01*
X26306143Y-30841118D01*
X26350493Y-30824458D01*
X26385285Y-30813241D01*
X26412187Y-30806986D01*
X26432865Y-30805212D01*
X26448988Y-30807438D01*
G37*
G36*
X26453467Y-30125983D02*
G01*
X26487963Y-30149018D01*
X26510028Y-30180150D01*
X26516517Y-30207086D01*
X26520703Y-30248182D01*
X26522661Y-30298295D01*
X26522461Y-30352285D01*
X26520178Y-30405010D01*
X26515884Y-30451330D01*
X26509652Y-30486103D01*
X26505524Y-30498230D01*
X26470075Y-30552076D01*
X26420627Y-30594310D01*
X26402170Y-30604859D01*
X26379139Y-30615930D01*
X26341812Y-30633055D01*
X26292513Y-30655223D01*
X26233564Y-30681427D01*
X26167290Y-30710658D01*
X26096012Y-30741907D01*
X26022054Y-30774166D01*
X25947738Y-30806425D01*
X25875389Y-30837676D01*
X25807327Y-30866910D01*
X25745878Y-30893118D01*
X25693363Y-30915292D01*
X25652106Y-30932423D01*
X25624429Y-30943502D01*
X25613350Y-30947400D01*
X25581218Y-30949276D01*
X25550765Y-30943765D01*
X25521550Y-30927850D01*
X25497799Y-30905363D01*
X25489627Y-30892647D01*
X25483960Y-30877906D01*
X25480350Y-30857490D01*
X25478347Y-30827746D01*
X25477502Y-30785026D01*
X25477357Y-30739286D01*
X25477661Y-30682855D01*
X25478874Y-30641988D01*
X25481468Y-30612714D01*
X25485911Y-30591064D01*
X25492675Y-30573068D01*
X25498387Y-30561730D01*
X25529457Y-30515984D01*
X25569561Y-30481304D01*
X25604346Y-30461430D01*
X25638114Y-30445259D01*
X25684496Y-30423996D01*
X25741249Y-30398596D01*
X25806129Y-30370010D01*
X25876894Y-30339192D01*
X25951301Y-30307094D01*
X26027108Y-30274670D01*
X26102072Y-30242873D01*
X26173950Y-30212655D01*
X26240500Y-30184969D01*
X26299478Y-30160768D01*
X26348642Y-30141005D01*
X26385749Y-30126633D01*
X26408557Y-30118606D01*
X26414439Y-30117230D01*
X26453467Y-30125983D01*
G37*
G36*
X26195963Y-27502826D02*
G01*
X26404879Y-27515889D01*
X26603096Y-27538178D01*
X26635000Y-27542835D01*
X26741512Y-27561202D01*
X26845884Y-27583480D01*
X26945120Y-27608784D01*
X27036225Y-27636225D01*
X27116203Y-27664917D01*
X27182059Y-27693973D01*
X27222363Y-27716753D01*
X27249950Y-27735960D01*
X27270035Y-27754442D01*
X27283800Y-27775686D01*
X27292428Y-27803178D01*
X27297098Y-27840403D01*
X27298994Y-27890849D01*
X27299307Y-27943754D01*
X27299035Y-28001160D01*
X27297930Y-28042828D01*
X27295555Y-28072553D01*
X27291477Y-28094132D01*
X27285259Y-28111359D01*
X27278617Y-28124268D01*
X27255162Y-28157169D01*
X27225656Y-28180003D01*
X27186634Y-28194187D01*
X27134627Y-28201138D01*
X27087364Y-28202461D01*
X27033264Y-28203844D01*
X26995108Y-28207869D01*
X26974592Y-28214354D01*
X26974148Y-28214673D01*
X26965325Y-28226239D01*
X26948487Y-28252870D01*
X26924833Y-28292400D01*
X26895564Y-28342664D01*
X26861880Y-28401498D01*
X26824980Y-28466737D01*
X26786063Y-28536216D01*
X26746330Y-28607770D01*
X26706981Y-28679234D01*
X26669215Y-28748443D01*
X26634232Y-28813234D01*
X26603232Y-28871439D01*
X26577414Y-28920896D01*
X26557979Y-28959438D01*
X26546125Y-28984902D01*
X26543542Y-28991649D01*
X26532958Y-29029626D01*
X26524321Y-29068528D01*
X26522506Y-29079022D01*
X26504198Y-29134275D01*
X26467531Y-29184230D01*
X26439615Y-29209177D01*
X26421882Y-29219875D01*
X26388661Y-29236889D01*
X26342263Y-29259215D01*
X26285003Y-29285847D01*
X26219190Y-29315781D01*
X26147139Y-29348011D01*
X26071161Y-29381532D01*
X25993569Y-29415339D01*
X25916675Y-29448426D01*
X25842791Y-29479790D01*
X25774229Y-29508424D01*
X25713302Y-29533324D01*
X25662323Y-29553484D01*
X25623602Y-29567899D01*
X25599454Y-29575565D01*
X25594577Y-29576499D01*
X25563191Y-29575840D01*
X25536694Y-29569193D01*
X25533435Y-29567531D01*
X25517247Y-29557416D01*
X25504486Y-29546458D01*
X25494682Y-29532287D01*
X25487361Y-29512530D01*
X25482053Y-29484818D01*
X25478285Y-29446780D01*
X25475585Y-29396046D01*
X25473482Y-29330243D01*
X25471740Y-29257538D01*
X25469218Y-29165544D01*
X25466190Y-29092243D01*
X25462601Y-29036798D01*
X25458395Y-28998369D01*
X25453517Y-28976116D01*
X25453200Y-28975274D01*
X25443089Y-28953191D01*
X25424920Y-28917459D01*
X25399959Y-28870314D01*
X25369469Y-28813994D01*
X25334715Y-28750734D01*
X25296960Y-28682773D01*
X25257469Y-28612346D01*
X25217504Y-28541691D01*
X25178331Y-28473044D01*
X25141214Y-28408643D01*
X25107415Y-28350724D01*
X25078200Y-28301524D01*
X25054831Y-28263279D01*
X25038574Y-28238228D01*
X25031688Y-28229327D01*
X25017243Y-28216822D01*
X25002827Y-28208949D01*
X24983589Y-28204642D01*
X24954680Y-28202835D01*
X24911250Y-28202461D01*
X24909464Y-28202461D01*
X24846252Y-28199616D01*
X24798418Y-28190124D01*
X24762511Y-28172549D01*
X24735080Y-28145458D01*
X24721382Y-28124268D01*
X24713186Y-28107797D01*
X24707470Y-28089948D01*
X24703799Y-28066923D01*
X24701737Y-28034928D01*
X24700849Y-27990165D01*
X24700692Y-27943754D01*
X24701207Y-27880054D01*
X24703541Y-27832396D01*
X24708874Y-27797295D01*
X24718390Y-27771262D01*
X24733268Y-27750814D01*
X24754692Y-27732462D01*
X24777636Y-27716753D01*
X24830121Y-27688041D01*
X24899110Y-27658987D01*
X24981609Y-27630479D01*
X25074621Y-27603403D01*
X25175151Y-27578647D01*
X25280205Y-27557096D01*
X25365000Y-27542835D01*
X25560867Y-27518994D01*
X25768373Y-27504379D01*
X25981933Y-27498991D01*
X26195963Y-27502826D01*
G37*
G36*
X111449627Y-31492829D02*
G01*
X111463792Y-31498680D01*
X111476021Y-31507955D01*
X111487906Y-31520200D01*
X111489443Y-31521914D01*
X111502962Y-31539692D01*
X111513100Y-31560553D01*
X111520206Y-31587251D01*
X111524633Y-31622539D01*
X111526732Y-31669170D01*
X111526853Y-31729897D01*
X111525432Y-31804133D01*
X111523734Y-31867493D01*
X111521216Y-31919620D01*
X111516507Y-31963215D01*
X111508236Y-32000980D01*
X111495032Y-32035618D01*
X111475524Y-32069829D01*
X111448341Y-32106317D01*
X111412113Y-32147782D01*
X111365468Y-32196928D01*
X111307036Y-32256455D01*
X111284203Y-32279577D01*
X111233062Y-32330917D01*
X111185158Y-32378150D01*
X111142540Y-32419319D01*
X111107261Y-32452471D01*
X111081369Y-32475651D01*
X111066917Y-32486904D01*
X111066427Y-32487173D01*
X111027591Y-32498683D01*
X110982605Y-32499432D01*
X110940944Y-32489731D01*
X110926730Y-32482622D01*
X110909452Y-32469033D01*
X110881450Y-32443695D01*
X110844976Y-32408918D01*
X110802281Y-32367009D01*
X110755616Y-32320276D01*
X110707231Y-32271029D01*
X110659378Y-32221574D01*
X110614307Y-32174222D01*
X110574271Y-32131280D01*
X110541518Y-32095057D01*
X110518301Y-32067860D01*
X110506927Y-32052109D01*
X110485405Y-31999776D01*
X110480428Y-31955890D01*
X110492414Y-31917866D01*
X110521780Y-31883120D01*
X110536173Y-31871308D01*
X110551773Y-31862256D01*
X110583311Y-31846347D01*
X110628801Y-31824502D01*
X110686257Y-31797642D01*
X110753695Y-31766690D01*
X110829128Y-31732565D01*
X110910571Y-31696190D01*
X110972464Y-31668839D01*
X111075662Y-31623529D01*
X111162602Y-31585712D01*
X111234875Y-31554937D01*
X111294072Y-31530751D01*
X111341785Y-31512702D01*
X111379606Y-31500338D01*
X111409126Y-31493205D01*
X111431936Y-31490853D01*
X111449627Y-31492829D01*
G37*
G36*
X111442500Y-29438116D02*
G01*
X111467311Y-29447205D01*
X111487820Y-29460393D01*
X111502669Y-29477597D01*
X111512719Y-29501922D01*
X111518827Y-29536473D01*
X111521852Y-29584358D01*
X111522653Y-29647371D01*
X111522410Y-29701685D01*
X111521291Y-29740638D01*
X111518719Y-29768405D01*
X111514113Y-29789163D01*
X111506893Y-29807087D01*
X111498230Y-29823280D01*
X111475869Y-29855642D01*
X111448927Y-29885387D01*
X111439615Y-29893538D01*
X111423565Y-29903132D01*
X111391599Y-29919495D01*
X111345751Y-29941683D01*
X111288057Y-29968746D01*
X111220548Y-29999739D01*
X111145261Y-30033713D01*
X111064228Y-30069722D01*
X111012945Y-30092239D01*
X110911942Y-30136298D01*
X110827173Y-30172928D01*
X110756997Y-30202595D01*
X110699775Y-30225763D01*
X110653869Y-30242900D01*
X110617639Y-30254470D01*
X110589445Y-30260939D01*
X110567648Y-30262773D01*
X110550610Y-30260437D01*
X110536690Y-30254396D01*
X110524249Y-30245118D01*
X110512861Y-30234281D01*
X110495185Y-30212128D01*
X110482985Y-30184706D01*
X110475689Y-30148756D01*
X110472724Y-30101018D01*
X110473518Y-30038233D01*
X110474425Y-30015490D01*
X110480389Y-29948090D01*
X110492597Y-29895633D01*
X110512694Y-29854071D01*
X110542324Y-29819359D01*
X110560384Y-29803966D01*
X110577592Y-29793596D01*
X110610096Y-29776955D01*
X110655651Y-29755024D01*
X110712007Y-29728780D01*
X110776918Y-29699202D01*
X110848135Y-29667270D01*
X110923412Y-29633961D01*
X111000501Y-29600254D01*
X111077154Y-29567129D01*
X111151124Y-29535563D01*
X111220163Y-29506535D01*
X111282023Y-29481025D01*
X111334458Y-29460010D01*
X111375219Y-29444470D01*
X111402059Y-29435382D01*
X111411441Y-29433384D01*
X111442500Y-29438116D01*
G37*
G36*
X111448988Y-30807438D02*
G01*
X111462221Y-30813184D01*
X111474232Y-30821968D01*
X111485087Y-30831803D01*
X111503953Y-30855977D01*
X111516805Y-30888921D01*
X111524170Y-30933415D01*
X111526572Y-30992235D01*
X111525514Y-31045307D01*
X111523840Y-31088049D01*
X111521317Y-31124648D01*
X111516538Y-31156267D01*
X111508093Y-31184069D01*
X111494575Y-31209214D01*
X111474577Y-31232866D01*
X111446691Y-31256185D01*
X111409508Y-31280334D01*
X111361621Y-31306475D01*
X111301622Y-31335769D01*
X111228104Y-31369380D01*
X111139657Y-31408468D01*
X111034875Y-31454196D01*
X111024757Y-31458606D01*
X110941093Y-31494909D01*
X110862254Y-31528793D01*
X110790187Y-31559446D01*
X110726838Y-31586054D01*
X110674156Y-31607803D01*
X110634085Y-31623881D01*
X110608573Y-31633474D01*
X110600380Y-31635900D01*
X110571701Y-31636769D01*
X110553391Y-31634716D01*
X110525858Y-31620074D01*
X110501104Y-31591278D01*
X110482974Y-31553682D01*
X110476696Y-31527957D01*
X110474225Y-31498475D01*
X110473144Y-31456373D01*
X110473561Y-31408524D01*
X110474446Y-31382711D01*
X110477230Y-31334246D01*
X110481273Y-31299770D01*
X110487758Y-31273730D01*
X110497868Y-31250576D01*
X110505535Y-31236835D01*
X110528496Y-31205171D01*
X110556072Y-31177146D01*
X110568251Y-31167887D01*
X110584679Y-31159086D01*
X110617010Y-31143463D01*
X110663208Y-31121943D01*
X110721238Y-31095449D01*
X110789067Y-31064908D01*
X110864660Y-31031242D01*
X110945980Y-30995377D01*
X110999827Y-30971811D01*
X111099078Y-30928568D01*
X111182103Y-30892692D01*
X111250569Y-30863703D01*
X111306143Y-30841118D01*
X111350493Y-30824458D01*
X111385285Y-30813241D01*
X111412187Y-30806986D01*
X111432865Y-30805212D01*
X111448988Y-30807438D01*
G37*
G36*
X111453467Y-30125983D02*
G01*
X111487963Y-30149018D01*
X111510028Y-30180150D01*
X111516517Y-30207086D01*
X111520703Y-30248182D01*
X111522661Y-30298295D01*
X111522461Y-30352285D01*
X111520178Y-30405010D01*
X111515884Y-30451330D01*
X111509652Y-30486103D01*
X111505524Y-30498230D01*
X111470075Y-30552076D01*
X111420627Y-30594310D01*
X111402170Y-30604859D01*
X111379139Y-30615930D01*
X111341812Y-30633055D01*
X111292513Y-30655223D01*
X111233564Y-30681427D01*
X111167290Y-30710658D01*
X111096012Y-30741907D01*
X111022054Y-30774166D01*
X110947738Y-30806425D01*
X110875389Y-30837676D01*
X110807327Y-30866910D01*
X110745878Y-30893118D01*
X110693363Y-30915292D01*
X110652106Y-30932423D01*
X110624429Y-30943502D01*
X110613350Y-30947400D01*
X110581218Y-30949276D01*
X110550765Y-30943765D01*
X110521550Y-30927850D01*
X110497799Y-30905363D01*
X110489627Y-30892647D01*
X110483960Y-30877906D01*
X110480350Y-30857490D01*
X110478347Y-30827746D01*
X110477502Y-30785026D01*
X110477357Y-30739286D01*
X110477661Y-30682855D01*
X110478874Y-30641988D01*
X110481468Y-30612714D01*
X110485911Y-30591064D01*
X110492675Y-30573068D01*
X110498387Y-30561730D01*
X110529457Y-30515984D01*
X110569561Y-30481304D01*
X110604346Y-30461430D01*
X110638114Y-30445259D01*
X110684496Y-30423996D01*
X110741249Y-30398596D01*
X110806129Y-30370010D01*
X110876894Y-30339192D01*
X110951301Y-30307094D01*
X111027108Y-30274670D01*
X111102072Y-30242873D01*
X111173950Y-30212655D01*
X111240500Y-30184969D01*
X111299478Y-30160768D01*
X111348642Y-30141005D01*
X111385749Y-30126633D01*
X111408557Y-30118606D01*
X111414439Y-30117230D01*
X111453467Y-30125983D01*
G37*
G36*
X111195963Y-27502826D02*
G01*
X111404879Y-27515889D01*
X111603096Y-27538178D01*
X111635000Y-27542835D01*
X111741512Y-27561202D01*
X111845884Y-27583480D01*
X111945120Y-27608784D01*
X112036225Y-27636225D01*
X112116203Y-27664917D01*
X112182059Y-27693973D01*
X112222363Y-27716753D01*
X112249950Y-27735960D01*
X112270035Y-27754442D01*
X112283800Y-27775686D01*
X112292428Y-27803178D01*
X112297098Y-27840403D01*
X112298994Y-27890849D01*
X112299307Y-27943754D01*
X112299035Y-28001160D01*
X112297930Y-28042828D01*
X112295555Y-28072553D01*
X112291477Y-28094132D01*
X112285259Y-28111359D01*
X112278617Y-28124268D01*
X112255162Y-28157169D01*
X112225656Y-28180003D01*
X112186634Y-28194187D01*
X112134627Y-28201138D01*
X112087364Y-28202461D01*
X112033264Y-28203844D01*
X111995108Y-28207869D01*
X111974592Y-28214354D01*
X111974148Y-28214673D01*
X111965325Y-28226239D01*
X111948487Y-28252870D01*
X111924833Y-28292400D01*
X111895564Y-28342664D01*
X111861880Y-28401498D01*
X111824980Y-28466737D01*
X111786063Y-28536216D01*
X111746330Y-28607770D01*
X111706981Y-28679234D01*
X111669215Y-28748443D01*
X111634232Y-28813234D01*
X111603232Y-28871439D01*
X111577414Y-28920896D01*
X111557979Y-28959438D01*
X111546125Y-28984902D01*
X111543542Y-28991649D01*
X111532958Y-29029626D01*
X111524321Y-29068528D01*
X111522506Y-29079022D01*
X111504198Y-29134275D01*
X111467531Y-29184230D01*
X111439615Y-29209177D01*
X111421882Y-29219875D01*
X111388661Y-29236889D01*
X111342263Y-29259215D01*
X111285003Y-29285847D01*
X111219190Y-29315781D01*
X111147139Y-29348011D01*
X111071161Y-29381532D01*
X110993569Y-29415339D01*
X110916675Y-29448426D01*
X110842791Y-29479790D01*
X110774229Y-29508424D01*
X110713302Y-29533324D01*
X110662323Y-29553484D01*
X110623602Y-29567899D01*
X110599454Y-29575565D01*
X110594577Y-29576499D01*
X110563191Y-29575840D01*
X110536694Y-29569193D01*
X110533435Y-29567531D01*
X110517247Y-29557416D01*
X110504486Y-29546458D01*
X110494682Y-29532287D01*
X110487361Y-29512530D01*
X110482053Y-29484818D01*
X110478285Y-29446780D01*
X110475585Y-29396046D01*
X110473482Y-29330243D01*
X110471740Y-29257538D01*
X110469218Y-29165544D01*
X110466190Y-29092243D01*
X110462601Y-29036798D01*
X110458395Y-28998369D01*
X110453517Y-28976116D01*
X110453200Y-28975274D01*
X110443089Y-28953191D01*
X110424920Y-28917459D01*
X110399959Y-28870314D01*
X110369469Y-28813994D01*
X110334715Y-28750734D01*
X110296960Y-28682773D01*
X110257469Y-28612346D01*
X110217504Y-28541691D01*
X110178331Y-28473044D01*
X110141214Y-28408643D01*
X110107415Y-28350724D01*
X110078200Y-28301524D01*
X110054831Y-28263279D01*
X110038574Y-28238228D01*
X110031688Y-28229327D01*
X110017243Y-28216822D01*
X110002827Y-28208949D01*
X109983589Y-28204642D01*
X109954680Y-28202835D01*
X109911250Y-28202461D01*
X109909464Y-28202461D01*
X109846252Y-28199616D01*
X109798418Y-28190124D01*
X109762511Y-28172549D01*
X109735080Y-28145458D01*
X109721382Y-28124268D01*
X109713186Y-28107797D01*
X109707470Y-28089948D01*
X109703799Y-28066923D01*
X109701737Y-28034928D01*
X109700849Y-27990165D01*
X109700692Y-27943754D01*
X109701207Y-27880054D01*
X109703541Y-27832396D01*
X109708874Y-27797295D01*
X109718390Y-27771262D01*
X109733268Y-27750814D01*
X109754692Y-27732462D01*
X109777636Y-27716753D01*
X109830121Y-27688041D01*
X109899110Y-27658987D01*
X109981609Y-27630479D01*
X110074621Y-27603403D01*
X110175151Y-27578647D01*
X110280205Y-27557096D01*
X110365000Y-27542835D01*
X110560867Y-27518994D01*
X110768373Y-27504379D01*
X110981933Y-27498991D01*
X111195963Y-27502826D01*
G37*
%TO.C,PS1*%
X52600000Y-74737500D02*
X52600000Y-40537500D01*
X32400000Y-74737500D02*
X52600000Y-74737500D01*
X32400000Y-40537500D02*
X32400000Y-74737500D01*
X52600000Y-40537500D02*
X32400000Y-40537500D01*
X46000000Y-40147500D02*
X43990000Y-40147500D01*
%TO.C,R1*%
X87960000Y-47020000D02*
X87630000Y-47020000D01*
X90040000Y-47020000D02*
X90370000Y-47020000D01*
X90370000Y-40480000D02*
X90040000Y-40480000D01*
X87630000Y-40480000D02*
X87960000Y-40480000D01*
X90370000Y-47020000D02*
X90370000Y-40480000D01*
X87630000Y-47020000D02*
X87630000Y-40480000D01*
%TO.C,R4*%
X90370000Y-57270000D02*
X90040000Y-57270000D01*
X90040000Y-50730000D02*
X90370000Y-50730000D01*
X87630000Y-57270000D02*
X87960000Y-57270000D01*
X87960000Y-50730000D02*
X87630000Y-50730000D01*
X87630000Y-50730000D02*
X87630000Y-57270000D01*
X90370000Y-50730000D02*
X90370000Y-57270000D01*
D14*
%TO.C,U2*%
X67250000Y-96080000D02*
X34770000Y-96040000D01*
X34770000Y-75930000D02*
X67250000Y-75970000D01*
X34770000Y-96040000D02*
X34770000Y-75930000D01*
X67250000Y-75970000D02*
X67250000Y-96080000D01*
D11*
X65436000Y-89984000D02*
G75*
G03*
X65436000Y-89984000I-150000J0D01*
G01*
D14*
%TO.C,U1*%
X104230000Y-28025000D02*
X104230000Y-78975000D01*
X75720000Y-28025000D02*
X104230000Y-28025000D01*
X75720000Y-28025000D02*
X86789000Y-28025000D01*
X104230000Y-78975000D02*
X75720000Y-78975000D01*
X81090000Y-78975000D02*
X98780000Y-78975000D01*
X75720000Y-78975000D02*
X81090000Y-78975000D01*
X93500000Y-28025000D02*
X104230000Y-28025000D01*
X75720000Y-78975000D02*
X75720000Y-28025000D01*
X104230000Y-28025000D02*
X104230000Y-78975000D01*
X75720000Y-78975000D02*
X75720000Y-28025000D01*
X98780000Y-78975000D02*
X104230000Y-78975000D01*
X86789000Y-28025000D02*
X93500000Y-28025000D01*
D15*
X75250000Y-37985000D02*
G75*
G03*
X75250000Y-37985000I-100000J0D01*
G01*
D13*
%TO.C,D4*%
X98730000Y-97250000D02*
X99380000Y-97250000D01*
X100100000Y-96130000D02*
X100100000Y-98370000D01*
X99980000Y-96130000D02*
X99980000Y-98370000D01*
X99380000Y-96130000D02*
X99380000Y-98370000D01*
X103620000Y-98370000D02*
X103620000Y-96130000D01*
X100220000Y-96130000D02*
X100220000Y-98370000D01*
X103620000Y-96130000D02*
X99380000Y-96130000D01*
X99380000Y-98370000D02*
X103620000Y-98370000D01*
X104270000Y-97250000D02*
X103620000Y-97250000D01*
%TD*%
M02*
